<?xml version="1.0" encoding="iso-8859-1"?>
<!-- Generator: Adobe Illustrator 19.0.0, SVG Export Plug-In . SVG Version: 6.00 Build 0)  -->
<svg version="1.1" id="Capa_1" xmlns="http://www.w3.org/2000/svg" xmlns:xlink="http://www.w3.org/1999/xlink" x="0px" y="0px"
	 viewBox="0 0 512 512" style="enable-background:new 0 0 512 512;" xml:space="preserve">
<path style="fill:#F97A41;" d="M273.415,26.722c-5.379-10.833-15.778-28.846-27.723-12.901
	c-9.068,12.106-17.852,34.203-3.792,46.064c7.556,6.375,20.63,6.388,28.201,0C280.114,51.437,278.584,37.132,273.415,26.722z"/>
<path style="fill:#F2662F;" d="M270.099,59.88c-5.387,4.547-13.578,5.858-20.568,3.925c2.824-0.78,5.457-2.082,7.64-3.925
	c10.014-8.441,8.482-22.75,3.315-33.154c-2.704-5.437-6.669-12.697-11.466-16.532c10.524-8.992,19.526,6.719,24.393,16.532
	C278.581,37.129,280.113,51.439,270.099,59.88z"/>
<path style="fill:#E84661;" d="M320.118,397.98V110.666c0-2.766-2.241-5.007-5.007-5.007H195.466c-2.073,0-3.938,1.271-4.673,3.209
	c-3.837,10.13-18.816,41.449-60.571,53.111c-2.163,0.604-3.667,2.57-3.667,4.817v53.234c0,2.766,2.241,5.007,5.007,5.007h55.315
	c2.766,0,5.007,2.241,5.007,5.007V397.98c0,2.766-2.241,5.007-5.007,5.007h-63.795c-2.766,0-5.007,2.241-5.007,5.007v91.491
	c0,2.766,2.241,5.007,5.007,5.007h265.837c2.766,0,5.007-2.241,5.007-5.007v-91.491c0-2.766-2.241-5.007-5.007-5.007h-63.795
	C322.359,402.986,320.118,400.745,320.118,397.98z"/>
<path style="fill:#CE1D4C;" d="M393.925,407.995v91.492c0,2.764-2.243,5.007-5.007,5.007h-32.043v-76.973
	c0-2.764-2.243-5.007-5.007-5.007h-63.795c-2.764,0-5.007-2.242-5.007-5.007V105.661h32.043c2.764,0,5.007,2.243,5.007,5.007
	v287.313c0,2.764,2.243,5.007,5.007,5.007h63.795C391.682,402.988,393.925,405.232,393.925,407.995z"/>
<path d="M388.92,395.476h-61.292v-284.81c0-6.902-5.615-12.517-12.517-12.517h-51.6v-6.163c0-4.147-3.362-7.51-7.51-7.51
	c-4.148,0-7.51,3.363-7.51,7.51v6.164h-53.025c-5.169,0-9.869,3.238-11.696,8.059c-3.281,8.662-16.985,37.761-55.571,48.538
	c-5.391,1.507-9.156,6.462-9.156,12.05v53.234c0,6.902,5.615,12.517,12.517,12.517h52.813v24.951c0,4.147,3.362,7.51,7.51,7.51
	c4.148,0,7.51-3.362,7.51-7.51v-27.455c0-6.902-5.615-12.517-12.517-12.517h-52.813v-48.84
	c41.861-12.446,58.288-43.739,63.106-55.518h58.82c0.003,0,0.006,0,0.01,0s0.006,0,0.01,0h56.597v284.81
	c0,6.902,5.615,12.517,12.517,12.517h61.292v86.484h-91.03c-4.148,0-7.51,3.362-7.51,7.51s3.362,7.51,7.51,7.51h93.533
	c6.902,0,12.517-5.615,12.517-12.517v-91.491C401.436,401.091,395.821,395.476,388.92,395.476z"/>
<path d="M247.99,496.98H125.585v-86.484h61.292c6.902,0,12.517-5.615,12.517-12.517v-94.421c0-4.147-3.362-7.51-7.51-7.51
	c-4.148,0-7.51,3.362-7.51,7.51v91.917h-61.292c-6.902,0-12.517,5.615-12.517,12.517v91.491c0,6.902,5.615,12.517,12.517,12.517
	H247.99c4.148,0,7.51-3.363,7.51-7.51S252.138,496.98,247.99,496.98z"/>
<path d="M237.057,65.625c5.223,4.406,12.083,6.609,18.943,6.608c6.86,0,13.721-2.203,18.943-6.609
	c8.51-7.179,14.977-22.55,5.197-42.242l0,0C275.011,13.05,267.723,1.061,256.8,0.063c-4.347-0.397-10.848,0.886-17.118,9.254
	C226.746,26.589,220.406,51.577,237.057,65.625z M251.704,18.323c2.075-2.771,3.424-3.302,3.712-3.302c0.007,0,0.013,0,0.018,0
	c0.406,0.037,4.172,0.774,11.254,15.04l0,0c3.693,7.437,5.535,18.207-1.429,24.083c-4.76,4.014-13.758,4.015-18.517,0
	C235.749,44.869,246.597,25.142,251.704,18.323z"/>
<g>
</g>
<g>
</g>
<g>
</g>
<g>
</g>
<g>
</g>
<g>
</g>
<g>
</g>
<g>
</g>
<g>
</g>
<g>
</g>
<g>
</g>
<g>
</g>
<g>
</g>
<g>
</g>
<g>
</g>
</svg>
