<svg height="512" viewBox="0 0 64 64" width="512" xmlns="http://www.w3.org/2000/svg"><g id="Flat"><g id="Color_copy" data-name="Color copy"><g><g><path d="m27 61h-24v-9l5-5h19z" fill="#f9e109"/><path d="m10 48v-1h-2l-5 5v9h24v-4h-8a9 9 0 0 1 -9-9z" fill="#fcbc04"/><path d="m20 39h4v8h-4z" fill="#57b7eb"/><path d="m12 39h4v8h-4z" fill="#84d2f4"/><path d="m9 52h4v4h-4z" fill="#84d2f4"/><path d="m13 54.7a9 9 0 0 1 -2.053-2.7h-1.947v4h4z" fill="#57b7eb"/><path d="m18 52h4v4h-4z" fill="#84d2f4"/><path d="m13 56h-4v-4z" fill="#4891d3"/><g fill="#57b7eb"><path d="m22 56h-4v-4z"/><path d="m14 42v-3h-2v8h4v-2.184a2.99 2.99 0 0 1 -2-2.816z"/></g></g><g><path d="m45 21h16v8h-16z" fill="#f9e109"/><path d="m49 21h-4v8h16v-5h-9a3 3 0 0 1 -3-3z" fill="#fcbc04"/><path d="m49 25h4v4h-4z" fill="#84d2f4"/><path d="m53 25h4v4h-4z" fill="#84d2f4"/><path d="m49 17h4v4h-4z" fill="#84d2f4"/><path d="m53 17h4v4h-4z" fill="#84d2f4"/><path d="m57 17h4v4h-4z" fill="#84d2f4"/><path d="m49 13h4v4h-4z" fill="#84d2f4"/><path d="m53 13h8v4h-8z" fill="#84d2f4"/><path d="m49 9h4v4h-4z" fill="#84d2f4"/><path d="m45 17h4v4h-4z" fill="#84d2f4"/><path d="m45 13h4v4h-4z" fill="#84d2f4"/><path d="m53 9h4v4h-4z" fill="#84d2f4"/><path d="m57 9h4v4h-4z" fill="#84d2f4"/><path d="m49 3h4v6h-4z" fill="#f9e109"/><path d="m53 5h4v4h-4z" fill="#84d2f4"/><g fill="#57b7eb"><path d="m61 13h-4v-4z"/><path d="m57 13h-4v-4z"/><path d="m57 9h-4v-4z"/><path d="m53 13h-4v-4z"/><path d="m53 17h-4v-4z"/><path d="m49 17h-4v-4z"/><path d="m57 21h-4v-4z"/><path d="m57 29h-4v-4z"/><path d="m61 21h-4v-4z"/><path d="m53 21h-4v-4z"/><path d="m53 29h-4v-4z"/><path d="m49 21h-4v-4z"/><path d="m61 17h-8v-4h4z"/></g><path d="m57 17h-4v-4z" fill="#4891d3"/><path d="m51 3v2a2 2 0 0 1 -2 2v2h4v-6z" fill="#fcbc04"/></g><g><circle cx="32" cy="32" fill="#c4f236" r="15"/><path d="m37 41a14.976 14.976 0 0 1 -13.614-21.268 14.992 14.992 0 1 0 22.229 18.536 14.92 14.92 0 0 1 -8.615 2.732z" fill="#a1d51c"/><g><path d="m25 29h6v6h-6z" fill="#84d2f4"/><path d="m38 38-7-3v-6l7-3z" fill="#f9e109"/><path d="m28.368 41a1.9 1.9 0 0 1 -1.8-1.3l-1.568-4.7h4l1.168 3.5a1.9 1.9 0 0 1 -1.8 2.5z" fill="#f9e109"/><path d="m24 29h1a0 0 0 0 1 0 0v6a0 0 0 0 1 0 0h-1a3 3 0 0 1 -3-3 3 3 0 0 1 3-3z" fill="#f9e109"/><path d="m30 29v4a4 4 0 0 1 -4-4h-1v6h6v-6z" fill="#57b7eb"/><g fill="#fcbc04"><path d="m24 29a3.987 3.987 0 0 1 -2.872 3.819 2.99 2.99 0 0 0 2.872 2.181h1v-6z"/><path d="m28.013 39.7a1.991 1.991 0 0 1 1.662-2.676l-.675-2.024h-4l1.568 4.7a1.9 1.9 0 0 0 1.8 1.3c.044 0 .083-.013.126-.016z"/><path d="m22.32 29.51a14.07 14.07 0 0 0 2.56 5.49h-.88a3 3 0 0 1 -1.68-5.49z"/><path d="m30.26 39.27a1.9 1.9 0 0 1 -3.69.43l-1.48-4.44a13.959 13.959 0 0 0 5.17 4.01z"/></g><path d="m22.98 31.64a14.07 14.07 0 0 0 1.9 3.36h-.88a3 3 0 0 1 -2.87-2.18 3.939 3.939 0 0 0 1.85-1.18z" fill="#e59730"/><path d="m28.49 40.98a.5.5 0 0 1 -.12.02 1.891 1.891 0 0 1 -1.8-1.3l-1.48-4.44a13.772 13.772 0 0 0 3.04 2.81 1.925 1.925 0 0 0 -.12 1.63z" fill="#e59730"/><path d="m33.007 28.14-2.007.86v6l7 3v-4.09a5.992 5.992 0 0 1 -4.993-5.77z" fill="#fcbc04"/></g><g fill="#f9e109"><circle cx="43" cy="32" r="1"/><circle cx="42" cy="36" r="1"/><circle cx="42" cy="28" r="1"/></g></g><path d="m61 41-6-8-6 8h4v4a12 12 0 0 1 -12 12h-6v4h6a16 16 0 0 0 16-16v-4z" fill="#f9e109"/><path d="m55 43v-10l-6 8h4v4a12 12 0 0 1 -12 12h-6v4h6a15.994 15.994 0 0 0 15.929-14.593 3.986 3.986 0 0 1 -1.929-3.407z" fill="#fcbc04"/><path d="m3 23 6 8 6-8h-4v-4a12 12 0 0 1 12-12h6v-4h-6a16 16 0 0 0 -16 16v4z" fill="#f9e109"/><path d="m9 24v-12.74a15.921 15.921 0 0 0 -2 7.74v4h-4l6 8 1.769-2.359a6.967 6.967 0 0 1 -1.769-4.641z" fill="#fcbc04"/></g></g></g></svg>