<svg height="471pt" viewBox="0 -17 471.016 471" width="471pt" xmlns="http://www.w3.org/2000/svg"><g fill="#122436"><path d="m345.683594 75.945312c-2.828125-1.90625-5.707032-3.746093-8.636719-5.507812l-5.15625 8.566406c2.78125 1.675782 5.511719 3.417969 8.199219 5.230469zm0 0"/><path d="m326.324219 64.429688c-3.023438-1.574219-6.097657-3.070313-9.210938-4.488282l-4.144531 9.097656c2.957031 1.347657 5.871094 2.769532 8.746094 4.261719zm0 0"/><path d="m305.765625 55.199219c-3.1875-1.21875-6.414063-2.351563-9.675781-3.40625l-3.070313 9.515625c3.09375 1 6.15625 2.078125 9.179688 3.230468zm0 0"/><path d="m167.320312 65.117188c3.007813-1.175782 6.054688-2.277344 9.136719-3.300782l-3.15625-9.492187c-3.246093 1.078125-6.453125 2.242187-9.625 3.480469zm0 0"/><path d="m392.78125 137.988281c1.753906 2.714844 3.441406 5.476563 5.054688 8.285157l8.667968-4.988282c-1.703125-2.957031-3.476562-5.867187-5.324218-8.726562zm0 0"/><path d="m357.09375 97.183594 6.5-7.597656c-2.589844-2.21875-5.242188-4.367188-7.949219-6.453126l-6.097656 7.925782c2.570313 1.976562 5.085937 4.019531 7.546875 6.125zm0 0"/><path d="m386.15625 128.40625 8.046875-5.9375c-2.027344-2.746094-4.125-5.433594-6.289063-8.070312l-7.726562 6.347656c2.054688 2.5 4.042969 5.054687 5.96875 7.660156zm0 0"/><path d="m403.324219 156.542969c1.433593 2.890625 2.792969 5.824219 4.074219 8.796875l9.179687-3.964844c-1.351563-3.132812-2.785156-6.222656-4.292969-9.269531zm0 0"/><path d="m156.625 69.695312-4.222656-9.066406c-3.09375 1.441406-6.140625 2.960938-9.144532 4.554688l4.683594 8.832031c2.851563-1.511719 5.746094-2.953125 8.683594-4.320313zm0 0"/><path d="m372.515625 111.972656 7.320313-6.8125c-2.324219-2.496094-4.710938-4.933594-7.160157-7.304687l-6.960937 7.179687c2.324218 2.253906 4.59375 4.566406 6.800781 6.9375zm0 0"/><path d="m137.828125 79.792969-5.226563-8.527344c-2.90625 1.785156-5.765624 3.640625-8.574218 5.570313l5.664062 8.242187c2.664063-1.832031 5.378906-3.59375 8.136719-5.285156zm0 0"/><path d="m67.007812 157.933594-8.996093-4.363282c-1.488281 3.070313-2.898438 6.183594-4.230469 9.339844l9.214844 3.882813c1.261718-2.992188 2.601562-5.945313 4.011718-8.859375zm0 0"/><path d="m77.421875 139.257812-8.441406-5.363281c-1.828125 2.882813-3.585938 5.808594-5.265625 8.789063l8.707031 4.917968c1.597656-2.828124 3.265625-5.613281 5-8.34375zm0 0"/><path d="m83.976562 129.609375c1.90625-2.625 3.878907-5.195313 5.914063-7.714844l-7.777344-6.285156c-2.144531 2.652344-4.222656 5.359375-6.226562 8.125zm0 0"/><path d="m120.296875 91.96875-6.164063-7.875c-2.6875 2.101562-5.316406 4.273438-7.890624 6.507812l6.5625 7.546876c2.441406-2.121094 4.9375-4.183594 7.492187-6.179688zm0 0"/><path d="m97.5 113.058594c2.1875-2.386719 4.4375-4.71875 6.746094-6.992188l-7.011719-7.128906c-2.433594 2.390625-4.800781 4.847656-7.105469 7.363281zm0 0"/><path d="m431.460938 261.136719c.019531-.1875.042968-.375.0625-.566407.019531-.195312.042968-.394531.0625-.59375.019531-.167968.035156-.335937.050781-.503906.039062-.355468.074219-.710937.105469-1.070312.011718-.105469.023437-.210938.03125-.316406.027343-.269532.050781-.542969.074218-.8125.015625-.152344.027344-.304688.039063-.457032.019531-.230468.042969-.464844.0625-.699218.011719-.152344.023437-.300782.035156-.453126.023437-.261718.042969-.527343.0625-.792968.007813-.109375.019531-.222656.027344-.332032.027343-.382812.054687-.761718.082031-1.144531.003906-.058593.007812-.121093.015625-.183593.019531-.332032.042969-.660157.0625-.988282.007813-.101562.015625-.207031.023437-.308594.015626-.28125.03125-.5625.046876-.84375.007812-.121093.015624-.25.023437-.371093.019531-.339844.039063-.679688.054687-1.019531 0-.003907 0-.007813 0-.015626 0-.019531 0-.039062 0-.058593 0-.011719.003907-.027344.003907-.039063.019531-.375.039062-.753906.054687-1.132812 0-.035156.003906-.066406.003906-.101563 0-.039062.003907-.082031.003907-.121093.015625-.320313.027343-.636719.039062-.953126.003907-.058593.003907-.121093.007813-.179687.003906-.066406.007812-.132813.011718-.199219.007813-.265625.019532-.535156.027344-.800781.003906-.09375.003906-.183594.007813-.273437.003906-.035157.003906-.074219.003906-.109376.011719-.3125.019531-.625.027344-.9375 0-.074218.003906-.152343.003906-.230468.011719-.386719.019531-.777344.027344-1.167969 0-.03125.003906-.066406.003906-.097656 0-.027344 0-.054688 0-.082031 0-.035157.003906-.066407.003906-.101563.003907-.292969.007813-.589844.011719-.886719.003906-.132812.003906-.265625.007812-.398437.003907-.273438.003907-.550781.007813-.824219 0-.125 0-.25 0-.375.003906-.382812.003906-.769531.003906-1.152344v-.457031c-.007812-4.121094-.140625-8.210937-.402343-12.269531 0-.007813 0-.015625-.003907-.023438-.023437-.414062-.050781-.824218-.082031-1.234375-.003906-.082031-.011719-.164062-.015625-.246093-.023437-.324219-.046875-.652344-.074219-.976563-.007812-.128906-.019531-.257813-.027344-.386719-.023437-.28125-.046874-.5625-.070312-.84375-.011719-.140625-.023438-.28125-.035156-.421875-.023438-.265625-.046875-.53125-.066406-.796875-.015626-.152344-.027344-.300781-.042969-.449218-.023438-.261719-.046875-.519532-.070313-.777344-.015625-.15625-.03125-.304688-.042968-.460938-.023438-.25-.050782-.503906-.078126-.753906-.015624-.15625-.03125-.316406-.046874-.472656-.027344-.246094-.050782-.496094-.078126-.742188-.019531-.164062-.035156-.324218-.050781-.488281-.027343-.253906-.058593-.507813-.085937-.761719-.015625-.117187-.027344-.238281-.042969-.355468-.472656-4.085938-1.070313-8.136719-1.789063-12.144532-.011718-.058594-.023437-.117187-.03125-.175781-.046874-.257813-.097656-.519531-.144531-.777344-.023437-.140625-.050781-.285156-.078125-.425781-.054687-.289062-.105468-.574219-.164062-.863281-.019532-.109375-.042969-.222657-.0625-.332031-.078125-.398438-.15625-.796876-.234375-1.199219-.007813-.039063-.015625-.074219-.023438-.113281-.070312-.351563-.140625-.703126-.210937-1.054688-.03125-.148438-.0625-.296875-.097656-.449219-.050782-.246093-.101563-.492187-.152344-.738281-.039063-.175781-.078125-.351562-.117188-.527344-.042968-.203125-.085937-.410156-.128906-.613281-.046875-.203125-.089844-.40625-.136719-.605469-.042969-.191406-.082031-.378906-.125-.566406-.046875-.203125-.09375-.402344-.136719-.601562-.046874-.199219-.09375-.398438-.140624-.597657-.027344-.128906-.058594-.257812-.085938-.382812-.9375-4.003907-1.996094-7.960938-3.171875-11.867188-.023437-.082031-.050781-.164062-.074219-.246093-.039062-.128907-.082031-.261719-.121094-.394532-.078124-.246094-.152343-.496094-.226562-.742187-.03125-.09375-.058594-.1875-.089844-.285157-.171875-.550781-.347656-1.105468-.523437-1.660156-.023438-.070312-.046875-.144531-.070313-.214844-.070312-.226562-.144531-.449218-.21875-.671874-.050781-.160157-.101562-.316407-.152344-.472657-.074218-.21875-.144531-.4375-.214843-.65625-.054688-.152343-.101563-.304687-.15625-.460937-.074219-.226563-.152344-.453125-.226563-.675782-.050781-.144531-.101562-.292968-.152344-.441406-.074218-.222656-.152343-.445312-.226562-.671875-.054688-.15625-.109375-.308593-.164062-.464843-.074219-.214844-.152344-.433594-.226563-.648438-.050781-.140625-.101563-.285156-.152344-.421875-.070312-.199219-.140625-.394531-.207031-.585937-.515625-1.429688-1.046875-2.855469-1.589844-4.269532l-9.332031 3.597656c.613281 1.59375 1.207031 3.195313 1.777344 4.804688.019531.050781.035156.105469.054687.152344.097656.269531.191406.542968.285156.8125.023438.074218.050782.152344.078126.226562.089843.261719.179687.527344.273437.792969.03125.085937.058594.167969.085937.253906.089844.261719.175782.519531.265626.78125.03125.089844.058593.179688.089843.269531.085938.253907.171875.511719.253907.765626.03125.097656.0625.191406.09375.285156.273437.84375.542968 1.683594.804687 2.527344.03125.097656.0625.191406.09375.289062.066406.214844.128906.425781.195313.636719.046874.15625.097656.316406.144531.476562 1.171875 3.871094 2.21875 7.792969 3.140625 11.765625.050781.21875.101562.4375.152344.65625.035156.15625.070312.308594.105468.464844.050782.234375.105469.46875.15625.707031.03125.132813.058594.265625.089844.398438.054688.246093.109375.492187.160156.742187.027344.132813.058594.265625.085938.398438.058594.277344.117187.550781.171875.824218.019531.09375.039062.191407.058593.289063.074219.359375.148438.714844.21875 1.070313.003907.023437.011719.046874.015626.070312.074218.386719.152343.773438.226562 1.15625.011719.066406.023438.132812.039062.199219.058594.308593.117188.617187.175782.925781.023437.125.046875.25.066406.375.046875.253906.09375.507812.140625.761719.710937 3.953125 1.300781 7.945312 1.761719 11.976562.03125.265625.058594.53125.089844.796875.015624.128906.027343.261719.042968.390625.027344.253907.054688.503907.078125.757813.015625.152344.03125.300781.046875.449218.023438.238282.046875.476563.074219.714844.011719.140625.027344.28125.039063.421875.023437.246094.046874.492188.066406.738281.015625.148438.027344.300782.039062.449219.023438.242188.042969.484375.0625.726563.011719.140625.023438.28125.039063.421875.019531.246093.039062.492187.058593.738281.011719.148438.023438.296875.035157.449219.019531.273437.042969.550781.0625.832031.007812.101562.015625.207031.023437.3125.023438.382812.050782.765625.074219 1.148438.257813 4.007812.386719 8.054687.386719 12.128906 0 .371094-.003906.742187-.003906 1.113281 0 .101563-.003907.207031-.003907.3125 0 .203125-.003906.410156-.003906.613281 0 .070313-.003906.140625-.003906.210938 0 .109375 0 .21875-.003907.328125-.003906.289062-.007812.582031-.011718.871093-.003906.082032-.003906.164063-.003906.246094-.007813.289063-.011719.578125-.019532.867188-.003906.089844-.003906.179687-.007812.269531v.054687c-.011719.359376-.023438.71875-.03125 1.078126-.003906.066406-.003906.136718-.007813.203124-.007812.308594-.019531.621094-.03125.933594-.003906.078125-.003906.160156-.007812.238282-.011719.328124-.027344.652343-.039063.980468-.003906.050782-.003906.101563-.007812.152344-.015625.386719-.035156.773438-.054688 1.160156v.007813c-.019531.363281-.039062.722656-.058594 1.082031-.003906.09375-.007812.1875-.015624.28125-.015626.285156-.035157.574219-.050782.863281-.007812.082031-.011718.167969-.015625.25-.023437.339844-.046875.679688-.070312 1.019531 0 .03125-.003907.0625-.003907.09375-.027343.371094-.054687.738282-.082031 1.109376-.003906.089843-.011719.183593-.019531.277343-.023438.269531-.042969.542969-.066406.8125-.007813.121094-.019532.246094-.03125.367188-.019532.246093-.039063.492187-.058594.738281-.011719.125-.023438.25-.035156.375-.027344.289062-.050782.578125-.082032.863281-.003906.074219-.011718.144531-.019531.21875-.03125.351563-.066406.699219-.101562 1.050781-.011719.125-.027344.253907-.042969.378907-.023438.226562-.046875.453125-.070312.679687-.015626.152344-.03125.304688-.046876.453125-.023437.214844-.050781.425781-.074218.640625-.015625.144532-.03125.285156-.046875.425782-.003907.039062-.007813.074218-.011719.105468-.023438.199219-.046875.398438-.070312.597656-.027344.222657-.054688.445313-.078126.667969-.03125.234375-.058593.46875-.089843.703125-.019531.160156-.042969.320313-.0625.480469-.023438.183594-.046875.371094-.070313.558594-.023437.1875-.050781.375-.078125.5625-.019531.148437-.039062.300781-.0625.449219-.027343.199218-.050781.398437-.082031.597656-.019531.121094-.035156.246094-.050781.367187-.0625.414063-.121094.828125-.183594 1.242188-.015625.109375-.03125.21875-.046875.324219-.035156.222656-.070312.441406-.101562.660156-.019532.121094-.039063.242187-.058594.363281-.035156.226563-.070313.453125-.105469.675781-.03125.183594-.0625.367188-.089844.550782-.019531.105468-.035156.214843-.054687.320312-.65625 3.96875-1.441406 7.894531-2.34375 11.773438-.070313.296874-.136719.589843-.207032.886718-.023437.097656-.046874.191406-.070312.289063-.070312.300781-.144531.601562-.21875.902343-.019531.078126-.039062.160157-.058594.238282-.074218.300781-.148437.601562-.226562.902344-.027344.109374-.054688.21875-.082032.332031-.070312.277343-.140624.554687-.214843.832031-.027344.105469-.054688.210938-.082031.320312-.074219.277344-.148438.554688-.222657.835938-.027343.105469-.054687.214844-.085937.324219-.074219.28125-.148438.5625-.226563.84375-.027343.097656-.054687.195312-.078125.289062-.082031.296875-.164062.585938-.246094.882813-.023437.085937-.046874.171875-.070312.257812-.082031.292969-.167969.585938-.25.875-1.089844 3.8125-2.300781 7.574219-3.625 11.28125-.125.351563-.25.703125-.378906 1.054688l-.027344.074218c-.96875 2.664063-2 5.300782-3.085938 7.90625-1.507812 3.613282-3.121093 7.171876-4.847656 10.667969-.164062.332031-.328125.664063-.492187.996094-.019531.035156-.035157.070313-.050781.105469-.160157.316406-.316407.628906-.476563.945312-.027344.054688-.058594.109375-.085937.164063-.148438.296875-.300782.59375-.457032.886719-.03125.066406-.0625.128906-.097656.195312-.152344.289062-.300781.582031-.453125.875-.035156.0625-.066406.125-.101563.1875-.15625.296875-.3125.59375-.46875.890625-.03125.054687-.058593.109375-.089843.164063-.179688.34375-.363281.683593-.550781 1.023437 0 .003906-.003907.007813-.003907.011719-.382812.710937-.773437 1.417968-1.167969 2.125-1.964843 3.515625-4.042968 6.964844-6.226562 10.335937-.101562.152344-.199219.304688-.296875.457031-.113281.175782-.230469.351563-.34375.527344-.097656.148438-.199219.296875-.296875.449219-.117188.179687-.238281.355469-.355469.535156-.09375.140625-.1875.285157-.28125.425781-.128906.183594-.25.371094-.378906.558594-.082031.125-.164063.246094-.25.371094-.140625.207031-.28125.414062-.421875.621094-.070312.101562-.136719.203125-.207031.304687-.144531.214844-.292969.425781-.441407.640625-.070312.101563-.136718.199219-.207031.296875-.160156.230469-.320312.457031-.476562.683594-.019531.027344-.039063.054687-.058594.082031-2.769531 3.941406-5.6875 7.769532-8.742187 11.476563-.035157.046875-.070313.085937-.105469.132812-.210938.253907-.421875.507813-.632813.761719l-.082031.097656c-.214844.257813-.429687.511719-.644531.765625-.03125.035157-.0625.070313-.089844.109375-.21875.253906-.433594.507813-.648438.761719-.027343.03125-.054687.0625-.082031.09375-.222656.257813-.445312.519531-.667969.777344-.011718.011719-.027343.027343-.039062.042969-2.933594 3.382812-5.984375 6.664062-9.152344 9.832031-.71875.71875-1.449218 1.433593-2.175781 2.140625-.132813.125-.261719.25-.390625.375-.15625.152344-.3125.300781-.46875.449218-.121094.117188-.242188.230469-.363281.347657-.164063.15625-.328125.3125-.496094.46875-.105469.097656-.210937.199219-.316406.296875-.1875.175781-.371094.351562-.5625.527344-.070313.070312-.148438.136718-.222657.207031-.210937.199219-.425781.394531-.640624.589843-.050782.050782-.101563.097657-.152344.144532-.234375.210937-.464844.425781-.695313.636718-.027343.023438-.050781.046876-.078125.070313-3.835937 3.480469-7.816406 6.808594-11.933594 9.96875-.046874.035156-.089843.066406-.132812.101563-.253906.195312-.511719.386718-.765625.582031-.050781.039062-.101563.074219-.152344.113281-.25.1875-.496093.375-.746093.5625-.0625.046875-.125.09375-.183594.136719-.25.183593-.496094.371093-.742188.554687-.050781.035156-.097656.070313-.144531.105469-.265625.195313-.535156.394531-.800781.585937-.011719.007813-.023438.015626-.03125.023438-4.429688 3.226562-9.003906 6.269531-13.714844 9.105469-.199219.117187-.402344.242187-.601562.359375-.140626.085937-.28125.167968-.421876.25-.199218.117187-.398437.234375-.597656.351562-.132812.078125-.265625.15625-.394531.234375-.222656.132813-.449219.261719-.675781.390625-.105469.0625-.210938.125-.320313.1875-.238281.136719-.476562.273438-.714843.410156-.105469.058594-.210938.117188-.316407.179688-.242187.136719-.484375.273438-.722656.410156-.105469.058594-.207031.117188-.308594.175782-.285156.15625-.570312.316406-.851562.472656-.050781.027344-.101563.054687-.148438.082031-.703125.386719-1.402343.769531-2.109375 1.148437-3.429687 1.835938-6.921875 3.566407-10.476562 5.195313-.34375.15625-.6875.3125-1.03125.46875l-.066406.027344c-.34375.15625-.6875.308593-1.03125.460937-.027344.011719-.054688.023438-.082032.035156-.339844.152344-.679687.296876-1.015625.445313-.03125.011719-.0625.027344-.089843.042969-.339844.144531-.679688.292968-1.019532.4375-.03125.011718-.058594.023437-.089844.035156-.324218.140625-.652343.28125-.980468.417969-.054688.023437-.109375.042969-.164063.066406-.320312.136719-.644531.269531-.964843.402344-.042969.019531-.085938.035156-.125.054687-.34375.136719-.6875.28125-1.03125.417969-.023438.011719-.046876.019531-.066407.027344-.367187.148437-.730469.292969-1.09375.4375-3.605469 1.429687-7.265625 2.75-10.976562 3.957031-1.910157.621094-3.835938 1.210938-5.773438 1.773438-.035156.007812-.066406.019531-.101562.027343-.34375.101563-.691407.199219-1.035157.296875-.074218.019532-.144531.039063-.21875.058594-.300781.085938-.609374.171875-.914062.257812-.101562.027344-.199219.050782-.300781.082032-.28125.078125-.566407.152344-.847657.226562-3.882812 1.046875-7.816406 1.96875-11.796874 2.765625-.207032.042969-.414063.082031-.621094.125-.179688.035157-.359375.070313-.535156.101563-.207032.042968-.417969.082031-.621094.121094-.191406.035156-.382813.074218-.570313.109374-.199219.035157-.390625.070313-.585937.105469-.203125.039063-.402344.074219-.601563.113281-.183593.03125-.367187.0625-.550781.097657-.210938.035156-.421875.074219-.628906.109375-.1875.03125-.371094.0625-.554688.09375-.207031.035156-.410156.070312-.617187.105468-.179688.03125-.359375.058594-.542969.089844-.21875.035156-.4375.074219-.65625.105469-.164062.027344-.332031.054687-.5.082031-.226562.035156-.453125.070313-.679688.105469-.164062.023437-.328124.050781-.492187.074219-4.097656.617187-8.242187 1.105468-12.425781 1.453125-.121094.011719-.242188.019531-.363282.03125-.273437.019531-.546874.042969-.820312.0625-.128906.011719-.257812.019531-.390625.03125-.261719.019531-.527344.035156-.792969.058593-.132812.007813-.273437.015626-.40625.027344-.273437.015625-.542968.035156-.8125.054688-.125.007812-.246094.015625-.371094.023437-.265624.015625-.535156.03125-.800781.046875-.148437.007813-.292969.015625-.441406.023438-.253906.015625-.511719.027344-.765625.042968-.136719.007813-.277344.015626-.417969.019532-.257812.011718-.519531.027344-.78125.039062-.144531.003906-.289062.011719-.433593.015625-.261719.011719-.523438.023438-.785157.035157-.132812.003906-.269531.007812-.40625.011718-2.308593.085938-4.628906.128906-6.960937.128906-1.914063 0-3.820313-.03125-5.71875-.085937-.15625-.003906-.3125-.011719-.46875-.015625-.253906-.007812-.507813-.015625-.761719-.023438-.152344-.007812-.304687-.011718-.457031-.015624-.242188-.011719-.480469-.023438-.71875-.03125-.160156-.007813-.324219-.015626-.488282-.023438-.253906-.011719-.507812-.023438-.761718-.035156-.136719-.003906-.277344-.015625-.414063-.019532-.257812-.015624-.519531-.027343-.777343-.042968-.144532-.007813-.289063-.015625-.4375-.023438-.253907-.015625-.511719-.03125-.765626-.046875-.144531-.007812-.285156-.015625-.429687-.023437-.25-.019532-.503906-.035156-.757813-.050782-.148437-.011718-.296874-.019531-.445312-.03125-.25-.019531-.496094-.039062-.742188-.054687-.152343-.011719-.308593-.023437-.460937-.035156-4.1875-.324219-8.332031-.785157-12.4375-1.378907-.144531-.023437-.292969-.042968-.441406-.066406-.230469-.03125-.457031-.066406-.6875-.101562-.167969-.023438-.339844-.050782-.511719-.078125-.21875-.03125-.4375-.066407-.652344-.101563-.179687-.027344-.355468-.054687-.535156-.082031-.210938-.035156-.421875-.070313-.632812-.101563-.183594-.03125-.367188-.0625-.550782-.09375-.203125-.035156-.414062-.070312-.617187-.105468-.191407-.03125-.375-.0625-.5625-.09375-.199219-.035156-.402344-.070313-.601563-.105469-.195312-.035156-.386718-.070313-.578125-.105469-.199219-.035156-.394531-.070312-.589843-.109375-.199219-.035156-.394532-.070312-.589844-.109375-.195313-.035156-.382813-.070312-.574219-.105468-.199219-.039063-.398437-.078126-.59375-.117188-4-.773438-7.953125-1.671875-11.855469-2.695312-.257812-.070313-.515625-.136719-.769531-.203126-.125-.035156-.25-.066406-.371094-.101562-.28125-.078125-.558593-.152344-.839843-.226562-.097657-.03125-.199219-.054688-.296876-.082032-.3125-.085937-.621093-.171875-.929687-.261718-.070313-.019532-.136719-.039063-.203125-.054688-.363281-.101562-.722656-.207031-1.085938-.3125l-.042968-.011719c-1.554688-.449219-3.097656-.917969-4.632813-1.40625-3.71875-1.183593-7.390625-2.484375-11.007812-3.890625-.367188-.140625-.734375-.285156-1.101563-.433594-.03125-.011718-.070312-.027343-.101562-.039062-.335938-.136719-.671875-.269531-1.007813-.40625-.046875-.015625-.089843-.035156-.132812-.054688-.335938-.132812-.671875-.273437-1.007813-.410156-.027344-.011718-.058594-.023437-.089844-.035156-.335937-.140625-.671874-.277344-1.003906-.417969-.046875-.019531-.09375-.039062-.140625-.058593-.324219-.140626-.652343-.277344-.976562-.414063-.042969-.019531-.082031-.035156-.125-.054687-.339844-.144532-.679688-.292969-1.019531-.4375-.019532-.011719-.042969-.019532-.066407-.03125-.355469-.152344-.710937-.308594-1.0625-.464844-.011719-.007813-.027343-.011719-.039062-.019532-.367188-.160156-.730469-.324218-1.09375-.488281-3.558594-1.601562-7.050781-3.308593-10.484375-5.121093-.703125-.371094-1.402344-.746094-2.101563-1.128907-.0625-.03125-.128906-.070312-.191406-.101562-.285156-.15625-.570313-.3125-.855469-.472657-.074218-.039062-.144531-.078124-.21875-.117187-.269531-.152344-.542968-.304687-.8125-.457031-.085937-.046875-.171875-.097656-.257812-.144532-.257813-.144531-.511719-.289062-.769532-.433593-.097656-.058594-.199218-.113281-.300781-.171875-.230469-.132813-.460937-.265625-.691406-.398438-.125-.070312-.25-.144531-.375-.21875-.214844-.121094-.421875-.246094-.632813-.367187-.132812-.078125-.269531-.15625-.402343-.238281-.203125-.121094-.402344-.238282-.605469-.359376-4.066406-2.417968-8.035156-4.984374-11.902344-7.695312-.011718-.007812-.027344-.019531-.039062-.027344-.265625-.183594-.53125-.375-.796875-.5625-.046875-.035156-.097657-.070312-.148438-.105468-.273437-.195313-.546875-.390626-.816406-.582032-.03125-.023437-.0625-.046875-.09375-.066406-.265625-.191406-.535156-.386719-.796875-.578125-.046875-.035156-.09375-.070313-.144531-.101563-.25-.183593-.503907-.371093-.753907-.558593-.058593-.039063-.117187-.085938-.175781-.125-.25-.1875-.503906-.375-.753906-.5625-.046875-.039063-.097656-.074219-.144531-.109375-.265625-.195313-.527344-.394532-.789063-.59375-.03125-.023438-.0625-.046875-.09375-.070313-4.148437-3.144531-8.164062-6.460937-12.03125-9.933593-.015625-.015626-.035156-.027344-.050781-.042969-.234375-.214844-.472656-.425781-.707031-.640625-.054688-.050782-.113281-.101563-.171875-.15625-.214844-.195313-.429688-.390625-.644532-.589844-.070312-.0625-.140624-.125-.207031-.1875-.207031-.1875-.410156-.378906-.613281-.570312-.089844-.082032-.175781-.164063-.265625-.246094-.183594-.167969-.359375-.335938-.539063-.503906-.113281-.105469-.230468-.210938-.34375-.320313-.164062-.15625-.328124-.308594-.492187-.464844-.121094-.117187-.242187-.234375-.367187-.351562-1-.960938-1.996094-1.929688-2.976563-2.910157-2.371094-2.371093-4.679687-4.808593-6.921875-7.304687-.011719-.011719-.023438-.023437-.035156-.039063-.222656-.25-.445313-.5-.667969-.75-.03125-.035156-.0625-.070312-.097656-.109374-.214844-.242188-.429688-.488282-.640625-.730469-.039063-.042969-.078125-.085938-.117188-.128907-.207031-.238281-.417968-.480468-.625-.71875-.042968-.046874-.085937-.097656-.125-.144531-.207031-.238281-.414062-.476562-.617187-.71875-.042969-.046875-.082031-.09375-.125-.140625-.210938-.25-.421875-.496094-.628907-.746094-.03125-.03125-.054687-.0625-.082031-.09375-.222656-.265624-.449219-.53125-.667969-.796874-.007812-.011719-.011718-.015626-.019531-.023438-3.101562-3.710938-6.058593-7.546875-8.871093-11.496094-.015626-.023437-.035157-.046875-.054688-.074218-.183594-.257813-.363281-.515626-.546875-.773438-.042969-.0625-.085937-.121094-.132813-.183594-.15625-.222656-.308593-.445312-.460937-.667968-.074219-.105469-.148437-.210938-.222656-.316407-.148438-.210937-.289063-.421875-.433594-.628906-.074219-.109375-.144531-.210937-.21875-.316406-.144531-.210938-.285156-.417969-.429687-.628907-.074219-.113281-.152344-.230468-.230469-.34375-.136719-.203124-.277344-.410156-.414063-.617187-.078125-.117187-.15625-.230469-.230468-.347656-.136719-.203125-.273438-.40625-.40625-.609375-.078126-.121094-.160157-.246094-.242188-.367188-2.21875-3.382812-4.328125-6.839844-6.328125-10.367187-.199219-.347657-.394531-.695313-.589844-1.046875-.011719-.027344-.03125-.054688-.046875-.082032-.175781-.3125-.347656-.628906-.523437-.945312-.039063-.066406-.074219-.136719-.109375-.203125-.15625-.28125-.3125-.566406-.464844-.851563-.035156-.066406-.074219-.132812-.109375-.199218-.152344-.28125-.304687-.566406-.457031-.851563-.035156-.070312-.074219-.136719-.109375-.207031-.148438-.28125-.296875-.558594-.445313-.835938-.042968-.082031-.082031-.160156-.125-.238281-.144531-.277343-.289062-.554687-.433594-.832031-.039062-.074219-.074218-.144531-.109374-.21875-.152344-.289062-.300782-.582031-.449219-.871094-.027344-.058594-.058594-.117187-.085938-.171875-.15625-.308593-.3125-.617187-.464843-.925781-1.746094-3.488281-3.386719-7.039062-4.921876-10.644531-1.253906-2.964844-2.4375-5.96875-3.542968-9.007813-1.339844-3.679687-2.566406-7.414062-3.679688-11.199218-.085937-.300782-.175781-.605469-.261718-.90625-.027344-.089844-.050782-.179688-.078126-.265626-.082031-.296874-.167968-.589843-.25-.886718-.027343-.089844-.050781-.179688-.078124-.269532-.082032-.296874-.164063-.59375-.246094-.890624-.023438-.085938-.046875-.175782-.070313-.261719-.082031-.292969-.160156-.585938-.238281-.882813-.027344-.09375-.054688-.191406-.078125-.289062-.078125-.285156-.152344-.570313-.226563-.859375-.027343-.101563-.054687-.203125-.078124-.304688-.074219-.277343-.144532-.554687-.214844-.828125-.027344-.117187-.058594-.230468-.085938-.34375-.074218-.289062-.144531-.574218-.214844-.863281-.023437-.097656-.046874-.191406-.070312-.285156-.070312-.296875-.144531-.589844-.214844-.886719-.925781-3.875-1.734375-7.792969-2.417968-11.757812-.027344-.148438-.050782-.300782-.078126-.449219-.042968-.242188-.082031-.484375-.121093-.726563-.019531-.109375-.035157-.226562-.054688-.335937-.027343-.167969-.058593-.339844-.082031-.507813-.042969-.246094-.078125-.492187-.121094-.742187-.011718-.09375-.027344-.183594-.042968-.277344-.039063-.246094-.074219-.488281-.109376-.730469-.011718-.070312-.023437-.136718-.03125-.203125-.066406-.433593-.128906-.871093-.191406-1.308593-.019531-.132813-.042968-.269532-.058594-.402344-.027343-.199219-.054687-.398438-.082031-.59375-.019531-.148438-.039062-.296875-.058593-.445313-.03125-.199219-.054688-.398437-.082032-.597656-.019531-.15625-.039062-.3125-.058594-.464844-.023437-.191406-.050781-.378906-.074218-.570312-.019532-.164063-.042969-.324219-.0625-.488281-.035156-.3125-.074219-.625-.113282-.9375-.023437-.203126-.046874-.402344-.070312-.601563-.015625-.164063-.035156-.320313-.054688-.484375-.019531-.191406-.039062-.382812-.0625-.574219-.019531-.164062-.035156-.324219-.050781-.488281-.023437-.226562-.050781-.449219-.070312-.671875-.015625-.128906-.027344-.253906-.039063-.382813-.039062-.347656-.070312-.699218-.105468-1.050781-.007813-.070312-.015626-.144531-.019532-.214843-.027344-.289063-.054687-.578126-.082031-.863282-.011719-.125-.019531-.25-.03125-.375-.019531-.246094-.042969-.492187-.0625-.738281-.011719-.121094-.019531-.246094-.03125-.363281-.023437-.273438-.042969-.546875-.0625-.816406-.007813-.09375-.015625-.1875-.023437-.277344-.027344-.363282-.054688-.726563-.078126-1.085938-.003906-.0625-.007812-.125-.011718-.183594-.023438-.316406-.042969-.636718-.066406-.953124-.003907-.085938-.007813-.167969-.015626-.253907-.019531-.285156-.035156-.574219-.050781-.863281-.007812-.09375-.011719-.183594-.015625-.28125-.019531-.359375-.042968-.71875-.058594-1.082031 0 0 0-.003907 0-.007813-.019531-.382812-.039062-.769531-.058593-1.160156 0-.046875-.003907-.097656-.003907-.148438-.015624-.328124-.027343-.652343-.039062-.980468-.003906-.082032-.007812-.160156-.007812-.242188-.011719-.3125-.023438-.621094-.035157-.933594 0-.066406-.003906-.136718-.003906-.203124-.011719-.359376-.023437-.714844-.03125-1.078126 0-.019531 0-.042968 0-.0625-.011719-.378906-.019531-.75-.027344-1.128906 0-.082031 0-.164062-.003906-.246094-.007813-.289062-.011719-.578124-.015625-.867187 0-.113281 0-.226563-.003906-.339844 0-.121093 0-.242187-.003906-.363281 0-.160156-.003907-.316406-.003907-.472656 0-.097656 0-.195313 0-.292969-.003906-.367187-.003906-.738281-.003906-1.109375 0-3.613281.101563-7.199219.304687-10.757812.011719-.207032.023438-.410157.035157-.617188.007812-.183594.023437-.367188.035156-.550781.011719-.199219.023437-.398438.035156-.601563.011719-.1875.023438-.371094.039063-.558594.015625-.203124.027344-.40625.042968-.609374.011719-.183594.023438-.367188.039063-.550782.015625-.222656.035156-.445312.050781-.664062.011719-.160156.023438-.316406.039063-.472656.03125-.378907.0625-.757813.097656-1.136719.007813-.082031.015625-.167969.019531-.253907.027344-.296874.054688-.597656.082032-.898437.011718-.136719.027343-.277344.042968-.414063.023438-.25.046875-.5.070313-.746093.015625-.140625.027343-.28125.042969-.417969.023437-.25.046874-.496094.078124-.746094.421876-3.988281.96875-7.941406 1.640626-11.851562.054687-.316406.109374-.632813.167968-.953125.019532-.117188.039063-.238281.0625-.355469.046875-.261719.09375-.519531.140625-.777344.023438-.140625.050781-.277344.074219-.414062.042969-.234375.089844-.472656.132812-.707032.027344-.152343.058594-.308593.089844-.457031.042969-.234375.089844-.464843.132813-.695312.027343-.144531.058593-.292969.085937-.441407.050782-.253906.101563-.507812.152344-.761718.023438-.117188.046875-.234375.070312-.347656.058594-.277344.113282-.550782.171876-.828126.023437-.109374.042968-.21875.070312-.324218.078125-.375.15625-.746094.238281-1.121094.011719-.050781.023438-.105469.035157-.160156.070312-.316406.140624-.632813.210937-.949219.898437-4.015625 1.929687-7.980469 3.082031-11.894531.042969-.144532.085938-.292969.128906-.441406.066407-.214844.128907-.425782.191407-.640626.046875-.144531.089843-.296874.136719-.445312.0625-.210938.128906-.421875.191406-.632812.046875-.140626.085937-.28125.132812-.421876.070313-.222656.140625-.453124.210938-.679687.039062-.117187.074218-.238281.113281-.355469.078125-.238281.152344-.476562.226563-.714844.027343-.085937.058593-.175781.085937-.261718.292969-.902344.589844-1.796875.894531-2.691406.011719-.039063.027344-.078126.039063-.113282.089843-.265625.179687-.527344.269531-.789062.027344-.085938.058594-.171875.089844-.257813.683594-1.96875 1.398437-3.921875 2.148437-5.855469l-9.332031-3.601562c-.75 1.945312-1.472656 3.90625-2.160156 5.882812-.027344.074219-.054688.152344-.082032.230469-.054687.160157-.109374.324219-.167968.484375-.074219.214844-.148438.429688-.222656.640625-.046876.152344-.097657.300781-.152344.449219-.179688.53125-.355469 1.066406-.53125 1.601562-.011719.035157-.027344.074219-.039063.113282-.074219.230468-.148437.460937-.226562.695312-.046875.144532-.09375.292969-.144531.441406-.070313.214844-.136719.429688-.203126.644532-.054687.167968-.109374.332031-.160156.5-.066406.207031-.132812.421875-.199218.632812-.050782.171875-.105469.34375-.160157.519532-.0625.203124-.125.40625-.1875.609374-.054687.183594-.109375.367188-.164062.546876-.058594.199218-.121094.398437-.179688.597656-.058593.195312-.113281.390625-.171875.589844-.042968.148437-.089844.300781-.136718.449218-1.140626 3.914063-2.164063 7.882813-3.066407 11.894532-.011719.042968-.019531.089843-.03125.136718-.035156.164063-.070312.328125-.109375.492188-.09375.425781-.1875.851562-.277344 1.28125-.035156.167968-.074218.339844-.109374.507812-.039063.191406-.082032.382813-.121094.578125-.042969.199219-.082032.394531-.125.597657-.039063.191406-.078125.382812-.117188.578124-.042968.203126-.082031.410157-.125.613282-.035156.195312-.074218.386718-.113281.578125-.039063.207031-.078125.410156-.117187.617187-.039063.1875-.074219.375-.109376.5625-.039062.210938-.078124.414063-.117187.625-.035156.191406-.070313.382813-.105469.574219-.039062.214844-.078125.429687-.117187.640625-.03125.183594-.066407.363281-.097657.546875-.039062.242187-.085937.484375-.125.730469-.023437.125-.046874.253906-.066406.378906-.683594 4.011719-1.25 8.070312-1.6875 12.160156-.007812.050782-.011718.101563-.015625.148438-.03125.28125-.058593.5625-.089843.84375-.011719.128906-.023438.253906-.035157.378906-.027343.285156-.058593.570312-.085937.859375-.011719.121094-.023438.246094-.035156.367187-.035157.363282-.066407.722657-.097657 1.085938-.003906.042969-.007812.085938-.011719.132812-.035156.40625-.070312.8125-.101562 1.21875-.011719.113282-.019531.222657-.027344.335938-.023437.292969-.046875.585938-.066406.878906-.011719.148438-.023438.300782-.035156.453125-.015625.257813-.035156.515625-.054688.769531-.007812.160157-.023437.324219-.03125.484376-.015625.242187-.03125.488281-.046875.734374-.011719.171876-.023437.347657-.035156.519532-.011719.234375-.027344.46875-.039063.707031-.007812.089844-.011718.183594-.015624.277344-.203126 3.648437-.304688 7.320312-.304688 11.015625 0 .394531 0 .789062.003906 1.183594v.070312.257812c.003906.273438.003906.546876.007813.824219.003906.128907.003906.265625.003906.394531.003906.28125.007813.558594.015625.839844 0 .117188.003906.234375.003906.355469.011719.375.019532.753906.027344 1.132813.003906.097656.007812.199218.007812.296874.007813.285157.015626.574219.023438.859376.003906.152343.011719.304687.015625.457031.007813.238281.015625.472656.023437.710937.007813.152344.011719.308594.019532.464844.007812.265625.019531.53125.03125.796875.007812.125.011718.242187.015625.367187.019531.367188.035156.738282.054687 1.105469.003906.132813.011719.265625.019532.402344.011718.25.027343.5.042968.75.003906.070313.007813.140625.011719.210937 0 .035157.003906.074219.003906.109376.019531.296874.035157.59375.054688.890624.007812.101563.011719.199219.019531.296876.019531.359374.046875.722656.070312 1.082031.003907.023437.003907.046875.003907.070312.027343.398438.054687.792969.085937 1.191407.007813.074218.011719.148437.019532.222656.023437.304687.046874.609375.070312.914062.011719.125.019531.25.03125.375.023438.265625.046875.53125.070312.796875.007813.121094.019532.25.03125.371094.027344.289063.054688.578125.082032.867187.011718.097657.019531.195313.027344.289063.03125.367187.070312.730469.105468 1.09375.015625.136719.027344.269531.042969.402344.023437.238281.046875.472656.074219.710937.019531.164063.035156.328125.054687.496094.019531.207031.046875.417969.070313.625.019531.171875.035156.347656.058594.519531.023437.210938.046874.421875.074218.632813.007813.085937.019532.175781.03125.261718.003906.039063.007813.074219.011719.113282.019531.164062.042969.324218.0625.488281.03125.253906.0625.503906.09375.757813.019531.171874.042969.347656.066406.519531.015625.117187.03125.234375.046875.355469.015625.125.03125.246093.046875.371093.019531.128907.035157.253907.050781.382813.015626.097656.027344.191406.042969.285156.089844.65625.179688 1.308594.277344 1.960938.054687.363281.109375.730468.164063 1.097656.015624.117187.035156.234375.054687.351562.011719.070313.019531.144532.03125.21875.007813.050782.019531.101563.027344.15625.027343.175782.054687.355469.082031.535156.015625.089844.03125.183594.042969.277344.003906.027344.011719.058594.015625.085938v.003906c.046875.289062.09375.582031.140625.871094.023437.132812.046875.269531.070312.402344.042969.277343.09375.558593.140625.835937.003906.019531.007813.039063.011719.058594.773437 4.476562 1.699219 8.898437 2.769531 13.269531.003906.011719.003906.023438.007813.039062.097656.386719.191406.777344.292969 1.164063.015624.066406.03125.128906.046874.195313.085938.34375.175782.683593.261719 1.027343.023438.082031.042969.160157.066407.242188.082031.320312.167968.640625.25.960937.027343.097656.054687.191406.078124.289063.085938.316406.171876.632812.257813.949219.023437.085937.046875.171874.070313.257812.085937.316406.175781.632812.261718.945312.027344.097657.054688.195313.082032.292969.085937.304688.175781.613281.261718.917969.027344.097656.054688.199219.082032.292969.089843.3125.179687.621093.273437.933593.015625.046876.027344.09375.042969.140626 1.160156 3.941406 2.4375 7.832031 3.835937 11.667968.007813.019532.015625.039063.023438.0625.128906.347656.253906.695313.382812 1.042969.015625.042969.03125.085937.046875.128906 2.46875 6.644531 5.285156 13.117188 8.429688 19.398438.023437.050781.046875.09375.070312.144531.148438.292969.292969.585938.445313.878906.039062.082032.082031.160156.125.242188.148437.296875.300781.59375.453125.886718.039062.078126.082031.160157.121094.238282.152343.289062.304687.582031.457031.871094.042969.082031.085937.167968.128906.25.148437.285156.300781.566406.449219.851562.050781.089844.097656.183594.144531.273438.152344.28125.300781.5625.453125.839843.046875.085938.09375.171875.136719.257813.167969.304687.332031.609375.5.914062.03125.058594.066406.117188.097656.175782.195313.355468.390625.710937.589844 1.066406.003906.007812.007812.011718.011719.019531 2.203124 3.953125 4.539062 7.816406 7.003906 11.589844.058594.089843.117187.183593.175781.273437.140625.210938.277344.421875.414063.628906.097656.144532.191406.292969.289062.433594.132812.199219.261719.398438.394531.59375.097657.148438.203125.300782.300781.453125.128907.191407.261719.382813.390626.574219.101562.152344.203124.300781.304687.453125.128906.183594.257813.375.386719.558594.105468.160156.214844.316406.324218.476562.121094.175781.246094.347657.367188.523438.113281.164062.230469.332031.34375.496093.117188.167969.238281.335938.355469.507813.121093.167969.238281.335937.359375.503906.109375.152344.214844.304688.324218.453125.132813.191406.269532.378906.402344.566406.097656.132813.1875.257813.28125.390626.128906.175781.257813.355468.386719.535156 2.414063 3.308594 4.925781 6.542968 7.535156 9.691406.121094.144531.246094.292969.367188.441406.085937.101563.171875.203125.253906.308594.167969.199219.335937.394531.503906.59375.101563.117188.199219.238281.300781.355469.164063.191406.328126.386719.492188.578125.097656.113281.191406.222656.285156.335937.175782.203125.351563.40625.527344.609375.085938.097656.171875.199219.257812.296875.175782.203125.351563.40625.527344.605469.097656.113281.195313.226562.296875.335938.167969.195312.339844.390624.511719.582031.085938.097656.171875.199219.261719.296875.1875.210937.378906.425781.570312.636718.050781.0625.105469.121094.160157.183594.214843.238282.433593.476563.648437.71875.039063.039063.070313.078125.109375.117188.214844.234375.429688.472656.648438.707031 2.769531 3.015625 5.632812 5.941406 8.585937 8.777344.136719.136719.277344.269531.414063.398437.085937.082032.175781.167969.261718.25.199219.1875.398438.378906.597656.566406.097657.09375.195313.1875.296876.28125.199218.1875.394531.375.597656.558594.09375.085938.183594.171875.277344.257813.207031.191406.414062.386719.621093.578125l.253907.234375c.214843.195312.429687.390625.644531.585937.085937.078125.171875.15625.257812.234375.210938.191407.421875.382813.636719.578125.089844.078125.179688.160156.269531.242188.210938.1875.421875.375.636719.5625.082031.074218.164062.144531.246094.21875.515625.453125 1.027344.90625 1.546875 1.355468 3.089843 2.679688 6.269531 5.261719 9.527343 7.75v.003907c.132813.101562.269532.203125.402344.304687.117188.089844.234375.179688.351563.265625.199219.152344.398437.300781.601562.453125.128907.097656.261719.195313.394531.292969.191407.144531.382813.289063.578126.429687.136718.101563.273437.203126.410156.304688.191406.140625.378906.277344.570312.417969.144532.105469.289063.210937.433594.316406.1875.132813.371094.269531.558594.40625.144531.101563.285156.203125.429687.304687.191407.136719.378907.273438.570313.410157.140625.097656.277344.199219.417968.296875.199219.136718.394532.277344.589844.417968.15625.105469.3125.214844.464844.324219.171875.117188.34375.238281.519531.359375.210938.148438.425781.292969.640625.441406.121094.085938.242188.167969.363282.253907 3.378906 2.308593 6.828124 4.515625 10.351562 6.621093.082031.046876.164062.09375.246094.140626.230468.136718.457031.273437.691406.410156.132812.078125.269531.15625.402344.238281.222656.128906.445312.257813.667968.390625l.410157.234375c.222656.128906.449219.257813.671875.386719.132812.078125.269531.152344.402344.230468.238281.136719.472656.265626.710937.402344.121094.070313.246094.140625.371094.207032.246093.140624.496093.28125.742187.414062.113282.0625.222656.125.332032.1875.277343.148438.554687.300781.832031.453125.085937.046875.171875.09375.257812.140625.324219.175781.648438.351562.972657.527344.035156.019531.074218.039062.109374.058594 3.976563 2.132812 8.03125 4.128906 12.164063 5.992187.019531.011719.042969.019531.0625.027344.351563.160156.699219.316406 1.054687.472656.050782.023437.109376.046875.164063.070313.324219.144531.65625.289062.984375.433593.0625.027344.128906.054688.191406.085938.324219.136719.644532.277343.96875.417969.070313.027343.136719.054687.203125.085937.320313.132813.640625.269531.964844.40625.066406.027344.132813.054687.203125.085937.316406.128907.632812.261719.949219.394532.082031.03125.160156.066406.238281.097656.316406.128906.632812.257812.949219.386719.070312.027343.140625.058593.214843.085937.335938.136719.671876.269532 1.007813.402344.050781.019531.097656.042969.148437.058594.359376.144531.71875.285156 1.082032.425781.023437.007813.042968.015625.070312.027344 5.382813 2.09375 10.882813 3.957031 16.484375 5.578125l.023438.007812c.386719.113282.773437.222656 1.160156.332032.074219.019531.144531.042968.21875.0625.328125.089843.652344.183593.980469.273437.09375.027344.183594.050781.277344.074219.3125.085937.628906.171875.941406.257812.101562.027344.203125.054688.304687.082032.296875.078124.597657.15625.894531.234374.046876.011719.09375.027344.140626.039063 3.945312 1.03125 7.9375 1.941406 11.972656 2.730469.097656.023437.195312.039062.289062.058594.246094.046874.492188.09375.738282.140624.160156.03125.320312.058594.484374.09375.253907.046876.507813.09375.761719.140626.160157.027343.320313.058593.476563.085937.246094.042969.496094.089844.742187.132813.167969.03125.339844.058593.507813.089843.242187.042969.488281.082031.734375.125.171875.03125.347656.058594.519531.089844.234375.039063.464844.078125.699219.113281.183593.03125.367187.0625.550781.089844.234375.039062.472656.078125.710938.113281.175781.027344.351562.054688.527343.082031.234375.035157.46875.070313.707031.109376.1875.027343.371094.054687.5625.082031.21875.03125.445313.066406.667969.097656.132813.019531.273438.039063.410157.058594 4.027343.574219 8.097656 1.023437 12.199218 1.347656.101563.007813.207032.015625.308594.023437.191406.015626.382812.03125.578125.046876.226563.015624.453125.03125.683594.046874.183593.015626.367187.027344.550781.039063.246094.015625.492188.035156.738281.050781.164063.011719.332031.023438.5.03125l.75.046875c.179688.007813.363281.019531.546875.03125.238282.011719.480469.023438.722656.039063.175782.007812.351563.015625.523438.027344.253906.011718.503906.023437.753906.035156.167969.007812.335938.011718.503906.019531.253907.011719.503907.023437.757813.035156.183594.007813.367187.011719.550781.019531.234375.007813.472656.015626.710938.023438.183594.003906.367187.011719.550781.015625.164063.003906.324219.007813.488281.011719 1.828125.050781 3.667969.074218 5.507813.074218 2.265625 0 4.519531-.039062 6.765625-.113281.152344-.003906.304687-.011719.457031-.015625.195313-.007812.390625-.011718.589844-.019531.226562-.011719.457031-.019531.683593-.03125.199219-.007813.394532-.015625.59375-.023437.234376-.011719.46875-.023438.703126-.035157.179687-.007812.359374-.019531.539062-.027343.242188-.011719.484375-.023438.726562-.039063.1875-.007813.371094-.019531.558594-.03125.234375-.015625.464844-.027344.695313-.042969.1875-.011718.375-.023437.558593-.035156.242188-.015625.488282-.03125.730469-.046875.175781-.011719.351563-.023437.527344-.035156.242187-.015625.480469-.035157.71875-.050781.183594-.015626.363281-.03125.546875-.042969.238281-.019531.480469-.039063.71875-.058594.175781-.015625.355469-.027344.535156-.042969.109375-.011718.214844-.019531.324219-.027344 4.101563-.351562 8.167969-.828124 12.195313-1.421874.125-.019532.25-.039063.378906-.058594.234375-.035156.472656-.070313.707031-.109375.179687-.027344.359375-.054688.535156-.082031.234375-.039063.464844-.074219.695313-.113282.183594-.027344.363281-.054687.542968-.085937.246094-.039063.496094-.082031.742188-.121094.152344-.027344.308594-.054687.460938-.078125.261718-.046875.523437-.089844.785156-.136719.15625-.027343.3125-.050781.46875-.082031.253906-.042969.511718-.089844.765625-.132812.160156-.03125.320312-.058594.480469-.089844l.761718-.140625c.152344-.027344.308594-.058594.464844-.085938.261719-.050781.523438-.101562.789062-.152343.144532-.027344.292969-.058594.441407-.085938.265625-.050781.53125-.105469.792969-.15625.085937-.019531.175781-.035156.261718-.054688 4.03125-.8125 8.015625-1.75 11.953125-2.804687.027344-.007813.054688-.015625.082031-.023437.335938-.089844.667969-.179688 1.003907-.273438.074219-.019531.148437-.039062.222656-.058594.359375-.101562.714844-.199218 1.074219-.300781.039062-.011719.082031-.023437.125-.035156 6.425781-1.816407 12.71875-3.949219 18.859375-6.382813.019531-.003906.03125-.011718.046875-.015625.371094-.148437.738281-.296875 1.105468-.445312.039063-.011719.074219-.027344.113282-.042969.347656-.140625.691406-.28125 1.035156-.421875.0625-.027344.125-.050781.183594-.078125.324218-.132812.648437-.265625.972656-.402344.070312-.03125.140625-.058594.210938-.089844.320312-.136718.640624-.269531.964843-.40625.0625-.027343.128907-.054687.191407-.082031.316406-.136719.636718-.273437.953124-.410156.074219-.03125.144532-.066406.21875-.097656.320313-.136719.640626-.277344.957032-.417969.0625-.027344.121094-.054688.183594-.082031.332031-.144531.660156-.292969.992187-.441407.050781-.023437.105469-.046874.15625-.070312.355469-.160156.707031-.320312 1.0625-.484375.015625-.007813.03125-.011719.050781-.019531 4.105469-1.882813 8.140625-3.898438 12.089844-6.046875.054688-.027344.105469-.058594.15625-.085938.316406-.171875.628906-.34375.9375-.515625.082031-.042968.160156-.085937.238281-.128906l.84375-.46875c.105469-.058594.210938-.121094.316407-.179688.253906-.144531.511718-.289062.765624-.433593.109376-.0625.21875-.125.328126-.1875.253906-.144531.507812-.289063.761718-.4375.109375-.0625.214844-.125.324219-.1875.253906-.148438.503906-.292969.757813-.441407.109374-.0625.21875-.128906.324218-.191406.246094-.144531.488282-.289062.734375-.433594.121094-.070312.238281-.144531.359375-.214843.238282-.140625.476563-.285157.714844-.429688.070312-.039062.144531-.082031.214844-.125 3.503906-2.121093 6.9375-4.34375 10.296875-6.671875.527343-.367187 1.054687-.734375 1.578125-1.105468.144531-.105469.292968-.207032.4375-.308594.191406-.136719.378906-.273438.566406-.40625.140625-.101563.285156-.207032.425781-.308594.199219-.140625.390625-.28125.585938-.425781.132812-.09375.265625-.191407.398437-.289063.199219-.144531.398438-.289062.59375-.4375.136719-.097656.269532-.195312.402344-.292968.1875-.140626.375-.28125.5625-.417969.136719-.101563.277344-.210938.417969-.3125.195312-.148438.390625-.292969.585937-.4375.128906-.097657.257813-.199219.386719-.296875.191406-.140625.378906-.285156.566406-.429688.140625-.109375.285157-.21875.425781-.328125.109376-.078125.210938-.160156.316407-.242187 3.238281-2.5 6.402343-5.101563 9.476562-7.796875.605469-.53125 1.207031-1.066407 1.804688-1.601563l.007812-.007812c.226563-.203125.457031-.410156.683594-.617188.078125-.070312.15625-.140625.230469-.210937.199218-.179688.394531-.359375.59375-.539063.105468-.097656.210937-.195312.320312-.296875.195313-.175781.386719-.355469.582032-.535156.101562-.09375.203124-.1875.300781-.28125.199219-.183594.394531-.371094.59375-.554687.097656-.089844.199219-.183594.296875-.277344.199218-.1875.398437-.375.59375-.566406.09375-.085938.183594-.171876.273437-.261719.203125-.195313.40625-.386719.609375-.582031.089844-.085938.179688-.171876.265625-.257813.121094-.121094.246094-.234375.363281-.355469 2.9375-2.851562 5.785157-5.796875 8.539063-8.828125.507813-.554687 1.011719-1.117187 1.511719-1.683593.027344-.03125.054687-.0625.082031-.09375.207031-.234376.414063-.46875.617187-.699219.066407-.074219.128907-.144531.191407-.21875.179687-.203125.355469-.40625.535156-.609375.097656-.113282.195313-.226563.289063-.335938.167968-.195312.335937-.386718.5-.582031.097656-.113281.195312-.226563.292968-.339844.164063-.195312.328125-.386719.492188-.582031.101562-.117188.203125-.238281.300781-.359375.160156-.1875.324219-.378906.484375-.570313.101562-.125.207031-.25.308594-.371093.15625-.1875.3125-.371094.464844-.558594.109374-.128906.214843-.261719.320312-.390625.097656-.117188.199219-.234375.292969-.355469 2.59375-3.164062 5.089843-6.414062 7.484375-9.738281.054687-.078125.113281-.15625.171875-.238281.179687-.25.359375-.503907.539062-.753907.089844-.128906.179688-.257812.269531-.382812.148438-.210938.296876-.417969.441407-.628906.09375-.132813.1875-.265625.277343-.398438.148438-.207031.289063-.414062.433594-.625.09375-.136718.1875-.273437.28125-.410156.140625-.203125.28125-.410156.421875-.613281.09375-.136719.1875-.273438.28125-.410157.140625-.207031.277344-.414062.417969-.621093.097656-.140625.191406-.285157.285156-.425781.136719-.199219.269532-.398438.398438-.597657.097656-.140625.191406-.285156.289062-.429687.136719-.207032.273438-.417969.410156-.625.089844-.136719.179688-.273438.265626-.40625.140624-.214844.277343-.429688.417968-.644532.054688-.085937.109375-.171874.167969-.257812 2.671875-4.148438 5.191406-8.402344 7.554687-12.757812.019532-.035157.035157-.066407.050782-.097657.183594-.335937.363281-.671875.546875-1.011719.027343-.054687.058593-.113281.089843-.167968.160157-.304688.320313-.605469.480469-.910156.050781-.097657.101563-.195313.152344-.296876.148437-.277343.292969-.554687.4375-.832031.042969-.089843.089844-.175781.132813-.261719.148437-.285156.292968-.570312.4375-.851562.046874-.097656.097656-.191406.144531-.289062.144531-.28125.289062-.5625.429687-.84375.042969-.089844.089844-.179688.132813-.269532.148437-.296875.296875-.59375.445312-.890625.019531-.042969.042969-.085937.0625-.125 1.808594-3.671875 3.503907-7.402343 5.085938-11.199219 0-.003906.003906-.007812.003906-.011718.816406-1.960938 1.601563-3.933594 2.359375-5.925782.003906-.019531.015625-.035156.019531-.054687.140625-.375.285157-.753906.425781-1.128906.011719-.039063.027344-.078125.042969-.117188.132813-.355469.261719-.710937.390625-1.066406.019532-.054687.039063-.109375.058594-.160156.125-.347657.25-.691407.375-1.039063.007812-.019531.011719-.039062.019531-.0625 1.371094-3.84375 2.628907-7.738281 3.761719-11.691406.015625-.046875.027344-.097656.042969-.148438.089843-.308593.175781-.621093.265625-.933593.023437-.085938.046875-.167969.070312-.253907.089844-.328124.183594-.65625.273438-.988281.019531-.074219.042968-.152343.0625-.226562.085937-.316407.171875-.632813.253906-.949219.027344-.101562.054688-.199219.082031-.296875.082031-.320313.167969-.636719.25-.957031.019531-.082032.042969-.164063.0625-.246094.085938-.320312.167969-.644531.25-.964844.019531-.09375.042969-.183594.070313-.273437.082031-.332031.164062-.664063.246094-.996094.019531-.074219.035156-.144531.054687-.21875.089844-.371094.179687-.738281.269531-1.109375.007813-.035156.015625-.070312.023438-.109375.097656-.40625.191406-.8125.285156-1.21875.003906-.003906.003906-.007813.003906-.011719.917969-3.96875 1.71875-7.988281 2.394532-12.042968.003906-.015626.007812-.03125.007812-.046876.050781-.292968.097656-.589843.144531-.882812 0 0 0 0 0-.003906.003907-.023438.007813-.046875.011719-.070313.015625-.09375.03125-.183593.046875-.277343.027344-.1875.058594-.375.085937-.566407.007813-.039062.011719-.074219.019532-.113281.160156-1.023438.3125-2.046875.453125-3.078125.011719-.082031.023437-.164063.035156-.246094.015625-.117187.03125-.234375.046875-.351562.011719-.074219.023438-.152344.03125-.226563.019531-.136718.039062-.277344.058594-.417968.015625-.121094.03125-.246094.046875-.371094.015625-.109375.027343-.21875.042969-.328125.023437-.179688.046874-.359375.070312-.539063.03125-.230468.058594-.460937.085938-.691406.023437-.1875.046874-.371094.066406-.554688.023437-.1875.046875-.375.066406-.5625.019531-.152343.035156-.300781.054688-.453124.011718-.082032.019531-.160157.027343-.238282.003907-.039062.007813-.074218.011719-.113281.007812-.0625.015625-.121094.019531-.1875.023438-.179687.046875-.375.066407-.566406zm0 0"/><path d="m186.804688 58.710938c2.425781-.652344 4.871093-1.257813 7.332031-1.8125h.003906c4.890625-1.105469 9.851563-2.015626 14.878906-2.726563.078125-.011719.160157-.023437.238281-.035156.4375-.0625.875-.121094 1.3125-.179688l.121094-.015625c.980469-.128906 1.960938-.25 2.945313-.367187.074219-.007813.152343-.015625.230469-.023438.402343-.046875.808593-.09375 1.210937-.136719.101563-.011718.203125-.023437.304687-.03125.429688-.046874.855469-.089843 1.289063-.136718.046875-.003906.097656-.007813.148437-.015625 4.480469-.441407 9.003907-.726563 13.574219-.851563.195313-.003906.390625-.007812.585938-.015625.324219-.007812.652343-.011719.976562-.019531.175781-.003906.351563-.003906.523438-.007812.371093-.007813.742187-.011719 1.113281-.015626.128906-.003906.261719-.003906.390625-.003906.503906-.003906 1.011719-.007812 1.519531-.007812.472656 0 .949219.003906 1.421875.007812h.289063c.46875.003906.9375.011719 1.40625.019532.046875 0 .09375.003906.140625.003906 4.660156.078125 9.273437.328125 13.84375.738281.09375.011719.183593.019531.277343.027344.390626.035156.777344.074219 1.167969.113281.117188.011719.230469.019531.347657.035156.402343.039063.804687.082032 1.203124.121094.074219.007812.148438.015625.222657.023438.96875.105468 1.933593.21875 2.894531.335937.097656.011719.199219.027344.296875.039063.386719.046874.769531.097656 1.15625.148437.101563.015625.207031.027344.308594.042969 4.527343.601562 8.996093 1.367187 13.410156 2.289062.007813 0 .015625.003906.023437.003906.484376.101563.964844.203126 1.449219.308594.011719.003906.027344.003906.042969.007813 1.960938.429687 3.910156.882812 5.851562 1.371093.015626.003907.03125.007813.042969.011719.972657.246094 1.9375.496094 2.902344.753907l2.59375-9.65625c-.835937-.226563-1.675781-.441407-2.519531-.65625v-.003907c-.175782-.042969-.355469-.089843-.53125-.132812-.019532-.003907-.035156-.007813-.054688-.015625-.5-.125-1.003906-.25-1.503906-.371094-.007812 0-.011719 0-.015625-.003906-1.535156-.371094-3.074219-.726563-4.625-1.0625-.027344-.003906-.054687-.011719-.082031-.015625-.492188-.109375-.988282-.214844-1.484375-.316407-.015625-.003906-.035157-.007812-.054688-.011718-.542969-.113282-1.082031-.226563-1.625-.332032-3.996093-.796874-8.03125-1.476562-12.109375-2.027343-.132812-.019531-.265625-.039063-.402344-.054688-.097656-.011719-.191406-.023437-.292968-.035156-.417969-.058594-.832032-.109375-1.253906-.160156-.09375-.011719-.191407-.027344-.285157-.039063-1.019531-.125-2.039062-.242187-3.0625-.351562-.074219-.007813-.148437-.015625-.21875-.023438-.429687-.046875-.859375-.089844-1.289062-.136718-.117188-.011719-.234375-.019532-.347657-.03125-.425781-.042969-.851562-.082032-1.277343-.125-.078125-.007813-.160157-.011719-.238281-.019532-.5-.046875-1-.089844-1.503907-.132812-4.054687-.335938-8.140625-.546875-12.257812-.636719-.28125-.007813-.5625-.011719-.839844-.015625-.046875 0-.089844-.003906-.132813-.003906-.492187-.007813-.984374-.015625-1.476562-.019532-.109375 0-.214844 0-.324219 0-.496093-.003906-.992187-.007812-1.484375-.007812-.53125 0-1.0625.003906-1.59375.007812-.148437 0-.304687.003907-.457031.003907-.375.003906-.75.011719-1.128906.015625-.195313.003906-.390625.007812-.585938.011718-.328125.003907-.652343.011719-.980469.019532-.214843.003906-.429687.007812-.640624.015625-.191407.003906-.386719.007812-.582032.015625-4.117187.125-8.203125.371094-12.253906.742187-.476562.046875-.953125.089844-1.429688.136719-.082031.007812-.160156.015625-.242187.023438-.425781.042968-.851563.085937-1.277344.132812-.117187.011719-.230469.023438-.347656.039062-.410156.042969-.820313.089844-1.230469.136719-.097656.011719-.199218.023438-.296875.035157-1.019531.117187-2.042969.246093-3.058593.378906-.066407.011718-.132813.019531-.203126.027344-.441406.0625-.886718.121093-1.328124.183593-.085938.011719-.167969.023438-.253907.035157-.164062.023437-.328125.046874-.492187.070312v.003906c-4.074219.585938-8.105469 1.296875-12.09375 2.128906-1.011719.210938-2.023438.429688-3.03125.660157-.042969.007812-.085938.019531-.128906.027343-2.042969.460938-4.074219.957032-6.09375 1.480469-.023438.003907-.046876.011719-.066407.015625-.214843.058594-.425781.113282-.640625.167969-.289062.078125-.578125.152344-.863281.230469zm0 0"/><path d="m389.765625 240.382812c0 1.621094-.023437 3.238282-.074219 4.84375l9.996094.308594c.050781-1.714844.078125-3.429687.078125-5.152344zm0 0"/><path d="m81.324219 245.230469c-.050781-1.609375-.074219-3.222657-.074219-4.847657h-10c0 1.726563.027344 3.441407.078125 5.152344zm0 0"/><path d="m105.007812 340.144531c2.0625 2.699219 4.210938 5.332031 6.4375 7.894531l7.550782-6.558593c-2.09375-2.410157-4.109375-4.882813-6.050782-7.417969zm0 0"/><path d="m126.84375 349.871094-7.042969 7.097656c2.410157 2.394531 4.894531 4.710938 7.453125 6.953125l6.59375-7.519531c-2.402344-2.105469-4.738281-4.28125-7.003906-6.53125zm0 0"/><path d="m136.738281 371.640625c2.714844 2.042969 5.492188 4.003906 8.332031 5.882813l5.511719-8.34375c-2.667969-1.765626-5.277343-3.605469-7.824219-5.527344zm0 0"/><path d="m106.308594 324.695312c-1.746094-2.667968-3.40625-5.390624-4.984375-8.164062l-8.691407 4.941406c1.679688 2.957032 3.453126 5.855469 5.308594 8.691406zm0 0"/><path d="m96.027344 306.351562c-1.363282-2.875-2.636719-5.796874-3.824219-8.761718l-9.285156 3.710937c1.261719 3.160157 2.621093 6.269531 4.070312 9.332031zm0 0"/><path d="m83.421875 266.335938c-.53125-3.128907-.964844-6.292969-1.304687-9.480469l-9.941407 1.050781c.359375 3.398438.820313 6.765625 1.386719 10.097656zm0 0"/><path d="m88.351562 286.785156c-.957031-3.03125-1.820312-6.101562-2.589843-9.210937l-9.707031 2.402343c.820312 3.3125 1.738281 6.582032 2.757812 9.8125zm0 0"/><path d="m382.710938 286.640625 9.542968 2.996094c1.011719-3.230469 1.929688-6.503907 2.746094-9.816407l-9.710938-2.394531c-.765624 3.109375-1.625 6.183594-2.578124 9.214844zm0 0"/><path d="m358.117188 334.007812c-1.941407 2.535157-3.960938 5.011719-6.050782 7.421876l7.550782 6.554687c2.226562-2.566406 4.375-5.199219 6.441406-7.902344zm0 0"/><path d="m369.738281 316.449219c-1.582031 2.78125-3.242187 5.507812-4.984375 8.179687l8.371094 5.46875c1.855469-2.84375 3.628906-5.746094 5.308594-8.710937zm0 0"/><path d="m378.859375 297.46875c-1.183594 2.972656-2.460937 5.902344-3.824219 8.785156l9.039063 4.273438c1.453125-3.066406 2.8125-6.1875 4.074219-9.355469zm0 0"/><path d="m344.21875 349.824219c-2.261719 2.246093-4.597656 4.429687-6.996094 6.535156l6.597656 7.515625c2.554688-2.242188 5.039063-4.5625 7.449219-6.957031zm0 0"/><path d="m388.914062 256.699219c-.335937 3.191406-.769531 6.351562-1.296874 9.484375l9.863281 1.660156c.5625-3.335938 1.023437-6.703125 1.378906-10.101562zm0 0"/><path d="m328.316406 363.609375c-2.542968 1.921875-5.152344 3.761719-7.8125 5.523437l5.515625 8.339844c2.835938-1.875 5.609375-3.835937 8.320313-5.878906zm0 0"/><path d="m312.75 373.9375c-7.453125 4.320312-15.296875 8.03125-23.46875 11.074219-.011719.003906-.023438.007812-.035156.011719-.367188.136718-.730469.269531-1.101563.40625-.058593.019531-.117187.039062-.175781.0625-.328125.117187-.65625.234374-.984375.351562-.066406.023438-.132813.046875-.199219.070312-.320312.113282-.644531.226563-.96875.339844-.074218.023438-.144531.046875-.21875.074219-.304687.105469-.613281.207031-.917968.3125-.109376.039063-.21875.074219-.328126.109375-.277343.09375-.554687.183594-.832031.273438-.113281.039062-.230469.074218-.34375.113281-3.847656 1.25-7.765625 2.351562-11.738281 3.300781-.167969.039062-.332031.078125-.5.117188-.230469.054687-.460938.105468-.691406.160156-.175782.039062-.347656.078125-.519532.117187-.230468.050781-.457031.105469-.6875.152344-.171874.039063-.339843.078125-.511718.113281-.234375.050782-.464844.101563-.699219.148438-.171875.039062-.347656.074218-.523437.113281-.230469.046875-.457032.09375-.6875.140625-.171876.035156-.347657.070312-.519532.105469-.230468.046875-.460937.09375-.695312.136719-.175782.035156-.351563.070312-.527344.105468-.234375.042969-.46875.089844-.699219.132813-.171875.03125-.339843.0625-.511719.09375-.242187.046875-.488281.089843-.730468.132812-.160156.027344-.324219.058594-.484375.085938-4.074219.71875-8.203125 1.273437-12.382813 1.667969-.082031.007812-.164062.015624-.246094.023437-1.257812.117187-2.523437.214844-3.789062.300781-.097656.007813-.195312.011719-.296875.019532-.324219.019531-.644531.042968-.96875.0625-.117187.003906-.234375.011718-.351563.019531-.296874.015625-.597656.035156-.898437.046875-.144531.007812-.292969.015625-.441406.023437-.269531.011719-.542969.023438-.816407.035157-.152343.007812-.304687.015624-.457031.019531-2.085937.085937-4.183593.128906-6.289062.128906-2.109375 0-4.207031-.042969-6.292969-.125-.125-.007813-.253906-.011719-.378906-.019531-.308594-.011719-.613282-.027344-.917969-.039063-.121094-.007812-.234375-.011719-.355469-.015625-.378906-.019531-.761718-.042968-1.144531-.0625-.03125-.003906-.0625-.003906-.097656-.007812-.855469-.050782-1.714844-.105469-2.570313-.171875-.035156 0-.074218-.003907-.109375-.007813-.378906-.027344-.753906-.058594-1.132812-.089844-.101563-.007812-.207031-.015624-.308594-.027343-.3125-.023438-.628906-.050781-.941406-.082031-.121094-.011719-.242188-.023438-.367188-.035157-4.136719-.386719-8.230469-.9375-12.265625-1.648437-.160156-.027344-.320312-.054688-.476562-.085938-.25-.042968-.5-.089844-.75-.136718-.160156-.03125-.316406-.058594-.476563-.089844-.246093-.042969-.492187-.09375-.742187-.136719-.160156-.03125-.316406-.0625-.476563-.09375-.25-.050781-.503906-.101563-.753906-.148437-.15625-.03125-.3125-.0625-.46875-.09375-.246094-.050782-.496094-.101563-.742187-.15625-.152344-.03125-.308594-.0625-.464844-.097657-.257813-.054687-.515625-.109375-.773438-.167969-.144531-.03125-.289062-.0625-.433594-.09375-.269531-.058593-.535156-.121093-.804687-.179687-.132813-.03125-.261719-.058594-.394531-.089844-.285156-.066406-.570313-.132812-.851563-.199219-.117187-.027343-.234375-.054687-.347656-.082031-4.027344-.957031-7.988281-2.070312-11.882813-3.335937-.070312-.023438-.136718-.046875-.207031-.070313-.339843-.109375-.675781-.222656-1.015625-.335937-.050781-.015625-.101562-.03125-.152344-.050782-.363281-.121093-.722656-.242187-1.085937-.367187-.023437-.011719-.050781-.019531-.078125-.027344-9.441406-3.253906-18.46875-7.398437-26.980469-12.332031l-5.015625 8.652344c.753906.4375 1.511719.867187 2.269532 1.292968 1.90625 1.0625 3.835937 2.089844 5.789062 3.082032.03125.011718.058594.027344.089844.042968.359375.183594.71875.363282 1.078125.539063.042969.019531.082031.042969.125.0625.347656.175781.699219.347656 1.046875.515625.046875.023438.089844.046875.136718.066406.265626.128906.527344.257813.796876.382813 3.667968 1.761719 7.410156 3.386719 11.226562 4.875 2.457031.960937 4.945312 1.859375 7.457031 2.703125.003907.003906.007813.003906.007813.003906.414062.136719.828125.277344 1.242187.410156.019531.007813.042969.011719.066407.023438.28125.089844.5625.183594.847656.273437v-.003906c3.867187 1.238281 7.792968 2.335937 11.78125 3.285156v.003907c.492187.117187.988281.230468 1.484375.34375.054687.015624.105469.027343.160156.039062.371094.085938.746094.167969 1.117187.25.085938.019531.171876.035156.253907.058594.339843.070312.683593.144531 1.023437.21875.113282.023437.222656.046875.335938.070312.316406.066406.632812.132813.953125.195313.121093.027343.246093.050781.367187.074219l.925782.1875c.132812.023437.265624.050781.398437.074218.300781.058594.601563.117188.898437.171875.140626.027344.277344.050781.417969.078125.296875.054688.589844.109375.886719.160156.140625.027344.285156.050782.429688.074219.109374.019531.21875.042969.328124.058594 3.992188.691406 8.035157 1.242187 12.117188 1.644531.160156.015625.320312.03125.484375.046875.207031.019531.410156.039063.617187.058594.238282.019531.472657.039063.707032.0625.207031.015625.414062.035156.621094.050781.226562.019532.453124.039063.679687.054688.214844.019531.433594.035156.648437.054687.242188.015625.488282.03125.730469.050781.421875.03125.84375.058594 1.265625.082032.199219.011718.398438.027344.59375.039062.226563.015625.449219.023438.671875.039063.226563.011719.457031.023437.6875.039062.207031.007813.417969.019531.625.027344.230469.011719.460938.023437.695313.03125.21875.011719.441406.019531.660156.027344.160156.007812.316406.015625.476562.019531 2.003907.070312 4.011719.109375 6.03125.109375 2.074219 0 4.136719-.039063 6.195313-.117187v.003906c.136719-.007813.273437-.011719.414063-.015625.203124-.007813.414062-.019531.617187-.027344.246094-.011719.492187-.023437.734375-.035156.203125-.007813.402344-.019531.601562-.027344.238282-.015625.476563-.027344.714844-.042969.210938-.011718.425782-.023437.636719-.035156.230469-.015625.460937-.027344.695313-.042969.207031-.015625.417968-.027343.625-.039062.269531-.019531.53125-.039063.796874-.058594.175782-.011719.351563-.023437.527344-.039063.4375-.03125.871094-.066406 1.308594-.101562.132812-.011719.265625-.023438.398438-.035156.304687-.023438.613281-.050782.917968-.078125.175782-.015625.347656-.035157.523438-.050781.21875-.019532.4375-.039063.65625-.0625 4.082031-.402344 8.121094-.957032 12.113281-1.65625v.003906c.078125-.015625.152344-.03125.230469-.042969.132812-.023437.261718-.046875.398437-.070313.300781-.050781.605469-.109374.910157-.164062.136718-.027344.277343-.050781.417968-.078125.292969-.054687.589844-.109375.882813-.167969.140625-.027344.28125-.054687.417969-.082031.304687-.058594.605468-.121094.90625-.179687.125-.023438.25-.050782.375-.078126.3125-.0625.621093-.125.933593-.191406.121094-.027344.246094-.054687.367188-.078125.316406-.066406.628906-.136719.941406-.203125.113281-.027344.226563-.050781.34375-.078125.328125-.070312.65625-.144531.984375-.21875.097656-.023437.199219-.046875.296875-.070312.347656-.078125.695313-.160157 1.042969-.242188.078125-.015625.15625-.035156.234375-.054687.101562-.023438.199219-.046875.296875-.070313 3.984375-.957031 7.914062-2.058593 11.777344-3.300781v.003906c.191406-.058594.378906-.125.570312-.183594l.28125-.09375c.332031-.105468.660156-.21875.988281-.324218.085938-.027344.171875-.058594.257813-.085938.339844-.113281.675781-.230468 1.011718-.34375.078126-.027344.152344-.054687.226563-.078125.351563-.121093.703125-.246093 1.050781-.367187.0625-.023438.125-.042969.183594-.0625.367188-.128906.730469-.261719 1.089844-.390625.050781-.019531.101562-.035157.148437-.050781.390625-.144532.777344-.285157 1.167969-.433594.015625-.003906.035156-.011719.054688-.019532.855468-.316406 1.710937-.644531 2.5625-.976562 3.804687-1.492188 7.542968-3.117188 11.207031-4.878906v.003906c.203125-.101562.410156-.203125.617187-.300781.085938-.042969.171875-.085938.257813-.125.304687-.148438.609375-.296875.910156-.449219.089844-.042969.175781-.085938.265625-.128906.300781-.152344.601562-.304688.902344-.457032.089844-.042968.175781-.085937.265625-.128906.3125-.160156.625-.320312.9375-.484375.070312-.035156.140625-.070312.207031-.105469.328125-.167968.65625-.339843.984375-.511718.058594-.03125.113281-.058594.171875-.089844.335938-.179688.671875-.355469 1.007812-.539062.046876-.023438.09375-.050782.140626-.074219.351562-.1875.703124-.378907 1.054687-.570313.027344-.015625.058594-.03125.085937-.046875.410157-.226562.820313-.453125 1.230469-.679687.730469-.410156 1.460938-.824219 2.1875-1.246094zm0 0"/></g><path d="m273.882812 43.378906c0 21.195313-17.179687 38.375-38.375 38.375-21.195312 0-38.375-17.179687-38.375-38.375 0-21.191406 17.179688-38.371094 38.375-38.371094 21.195313 0 38.375 17.179688 38.375 38.371094zm0 0" fill="#ffcc34"/><path d="m235.507812 48.515625c-3.589843 0-6.5-2.910156-6.5-6.5v-15.871094c0-3.589843 2.910157-6.5 6.5-6.5 3.589844 0 6.5 2.910157 6.5 6.5v15.871094c0 3.589844-2.910156 6.5-6.5 6.5zm0 0" fill="#fff"/><path d="m242.007812 60.617188c0 3.589843-2.910156 6.5-6.5 6.5-3.589843 0-6.5-2.910157-6.5-6.5 0-3.589844 2.910157-6.5 6.5-6.5 3.589844 0 6.5 2.910156 6.5 6.5zm0 0" fill="#fff"/><path d="m235.507812 13.253906c19.800782 0 36.097657 14.996094 38.152344 34.25.144532-1.355468.222656-2.730468.222656-4.121094 0-21.195312-17.179687-38.375-38.375-38.375-21.195312 0-38.375 17.179688-38.375 38.375 0 1.390626.078126 2.765626.222657 4.121094 2.054687-19.257812 18.351562-34.25 38.152343-34.25zm0 0" fill="#fff"/><path d="m235.507812.0078125c-23.957031.0039063-43.371093 19.4179685-43.375 43.3749995.003907 23.957032 19.417969 43.371094 43.375 43.375 23.957032-.003906 43.371094-19.417968 43.375-43.375-.003906-23.957031-19.417968-43.3710932-43.375-43.3749995zm23.597657 66.9726565c-6.054688 6.046875-14.367188 9.773437-23.597657 9.777343-9.230468-.003906-17.542968-3.730468-23.601562-9.777343-6.046875-6.054688-9.769531-14.367188-9.773438-23.597657 0-9.234374 3.726563-17.542968 9.773438-23.597656 6.058594-6.046875 14.371094-9.773437 23.601562-9.773437 9.230469 0 17.542969 3.726562 23.597657 9.773437 6.046875 6.054688 9.773437 14.363282 9.777343 23.597656-.003906 9.230469-3.730468 17.542969-9.777343 23.597657zm0 0" fill="#122436"/><path d="m466.015625 222.445312c0 21.195313-17.179687 38.375-38.375 38.375-21.191406 0-38.371094-17.179687-38.371094-38.375 0-21.191406 17.179688-38.375 38.371094-38.375 21.195313 0 38.375 17.183594 38.375 38.375zm0 0" fill="#ffcc34"/><path d="m427.644531 227.578125c-3.589843 0-6.5-2.90625-6.5-6.496094v-15.871093c0-3.589844 2.910157-6.5 6.5-6.5 3.589844 0 6.496094 2.910156 6.496094 6.5v15.871093c0 3.589844-2.90625 6.496094-6.496094 6.496094zm0 0" fill="#fff"/><path d="m434.140625 239.683594c0 3.589844-2.910156 6.5-6.496094 6.5-3.589843 0-6.5-2.910156-6.5-6.5s2.910157-6.5 6.5-6.5c3.589844 0 6.496094 2.910156 6.496094 6.5zm0 0" fill="#fff"/><path d="m427.640625 192.316406c19.800781 0 36.097656 15 38.15625 34.253906.144531-1.355468.21875-2.730468.21875-4.121093 0-21.195313-17.179687-38.375-38.375-38.375-21.191406 0-38.371094 17.179687-38.371094 38.375 0 1.390625.074219 2.765625.21875 4.121093 2.058594-19.257812 18.355469-34.253906 38.152344-34.253906zm0 0" fill="#fff"/><path d="m427.640625 179.070312c-23.953125.003907-43.367187 19.417969-43.371094 43.375.003907 23.957032 19.417969 43.371094 43.371094 43.375 23.957031-.003906 43.371094-19.417968 43.375-43.375 0-23.957031-19.414063-43.371093-43.375-43.375zm23.601563 66.972657c-6.054688 6.050781-14.367188 9.773437-23.597657 9.777343-9.234375-.003906-17.542969-3.726562-23.597656-9.773437-6.050781-6.058594-9.773437-14.367187-9.773437-23.597656 0-9.234375 3.726562-17.546875 9.773437-23.597657 6.054687-6.046874 14.363281-9.773437 23.597656-9.777343 9.230469.003906 17.542969 3.730469 23.597657 9.777343 6.046874 6.054688 9.773437 14.363282 9.773437 23.597657 0 9.230469-3.726563 17.539062-9.773437 23.59375zm0 0" fill="#122436"/><path d="m81.746094 222.445312c0 21.195313-17.179688 38.375-38.375 38.375-21.191406 0-38.375-17.179687-38.375-38.375 0-21.191406 17.183594-38.375 38.375-38.375 21.195312 0 38.375 17.183594 38.375 38.375zm0 0" fill="#ffcc34"/><path d="m43.375 227.578125c-3.589844 0-6.5-2.90625-6.5-6.496094v-15.871093c0-3.589844 2.910156-6.5 6.5-6.5s6.5 2.910156 6.5 6.5v15.871093c0 3.589844-2.914062 6.496094-6.5 6.496094zm0 0" fill="#fff"/><path d="m49.875 239.683594c0 3.589844-2.910156 6.5-6.5 6.5s-6.5-2.910156-6.5-6.5 2.910156-6.5 6.5-6.5 6.5 2.910156 6.5 6.5zm0 0" fill="#fff"/><path d="m43.375 192.316406c19.800781 0 36.09375 15 38.152344 34.253906.144531-1.355468.21875-2.730468.21875-4.121093 0-21.195313-17.179688-38.375-38.375-38.375-21.191406 0-38.375 17.179687-38.375 38.375 0 1.390625.078125 2.765625.222656 4.121093 2.058594-19.257812 18.351562-34.253906 38.15625-34.253906zm0 0" fill="#fff"/><path d="m43.375 179.070312c-23.957031.003907-43.37109375 19.417969-43.375 43.375.00390625 23.957032 19.417969 43.371094 43.375 43.375 23.953125-.003906 43.367188-19.417968 43.371094-43.375-.003906-23.957031-19.417969-43.371093-43.371094-43.375zm23.597656 66.972657c-6.058594 6.050781-14.367187 9.773437-23.597656 9.773437-9.234375 0-17.546875-3.726562-23.601562-9.773437-6.046876-6.058594-9.769532-14.367188-9.777344-23.597657.003906-9.234374 3.730468-17.546874 9.777344-23.597656 6.054687-6.046875 14.367187-9.773437 23.601562-9.777344 9.230469.003907 17.539062 3.730469 23.597656 9.777344 6.046875 6.054688 9.769532 14.363282 9.773438 23.597656-.003906 9.234376-3.726563 17.542969-9.773438 23.597657zm0 0" fill="#122436"/><path d="m313.921875 298.554688-51.527344-100.191407c-2.226562-4.335937-3.386719-9.136719-3.386719-14.007812v-42.410157h-46.996093v42.410157c0 4.871093-1.160157 9.671875-3.390625 14.007812l-51.523438 100.191407c-2.226562 4.332031-3.390625 9.136718-3.390625 14.007812v18.996094c0 17.601562 14.265625 31.867187 31.867188 31.867187h99.875c17.597656 0 31.863281-14.265625 31.863281-31.867187v-18.996094c-.003906-4.871094-1.164062-9.675781-3.390625-14.007812zm0 0" fill="#fff"/><path d="m313.921875 298.554688-49.425781-96.109376h-57.976563l-49.421875 96.109376c-2.226562 4.332031-3.390625 9.136718-3.390625 14.007812v18.996094c0 17.601562 14.265625 31.867187 31.867188 31.867187h99.871093c17.601563 0 31.867188-14.265625 31.867188-31.867187v-18.996094c-.003906-4.871094-1.164062-9.675781-3.390625-14.007812zm0 0" fill="#4ea3da"/><path d="m263.316406 107.445312h-55.613281c-8.882813 0-16.078125 7.199219-16.078125 16.078126v2.34375c0 8.878906 7.199219 16.078124 16.078125 16.078124h55.613281c8.878906 0 16.074219-7.199218 16.074219-16.078124v-2.34375c0-8.878907-7.195313-16.078126-16.074219-16.078126zm0 0" fill="#4ea3da"/><path d="m263.316406 107.445312h-55.613281c-8.882813 0-16.078125 7.199219-16.078125 16.078126v2.34375c0 2.242187.460938 4.371093 1.289062 6.308593 2.453126-5.742187 8.148438-9.769531 14.789063-9.769531h55.613281c6.640625 0 12.335938 4.027344 14.789063 9.769531.828125-1.9375 1.289062-4.066406 1.289062-6.308593v-2.34375c-.003906-8.878907-7.199219-16.078126-16.078125-16.078126zm0 0" fill="#fff"/><path d="m318.367188 296.269531-51.523438-100.195312c-1.867188-3.625-2.839844-7.640625-2.839844-11.71875v-37.421875c5.535156-.179688 10.566406-2.507813 14.214844-6.160156 3.804688-3.800782 6.175781-9.097657 6.171875-14.90625v-2.34375c.003906-5.804688-2.367187-11.109376-6.171875-14.90625-3.796875-3.804688-9.097656-6.175782-14.902344-6.171876h-55.613281c-11.644531.003907-21.074219 9.433594-21.078125 21.078126v2.34375c.003906 11.410156 9.066406 20.695312 20.386719 21.066406v37.421875c0 4.078125-.972657 8.09375-2.835938 11.71875l-51.527343 100.195312c-2.589844 5.039063-3.941407 10.625-3.941407 16.292969v19c.003907 20.363281 16.503907 36.863281 36.863281 36.867188h99.875c20.363282-.003907 36.863282-16.503907 36.867188-36.867188v-19c-.003906-5.667969-1.355469-11.253906-3.945312-16.292969zm-121.742188-170.402343v-2.34375c0-3.074219 1.230469-5.8125 3.242188-7.832032 2.019531-2.011718 4.757812-3.242187 7.832031-3.246094h55.613281c3.074219.003907 5.8125 1.234376 7.832031 3.246094 2.011719 2.019532 3.242188 4.757813 3.246094 7.832032v2.34375c-.003906 3.074218-1.234375 5.8125-3.246094 7.832031-2.019531 2.011719-4.757812 3.242187-7.832031 3.246093h-55.613281c-3.074219-.003906-5.8125-1.234374-7.832031-3.246093-2.011719-2.019531-3.238282-4.757813-3.242188-7.832031zm115.683594 205.691406c0 7.433594-3 14.121094-7.867188 19-4.878906 4.871094-11.5625 7.867187-18.996094 7.867187h-99.875c-7.433593 0-14.121093-3-18.996093-7.867187-4.871094-4.878906-7.867188-11.5625-7.867188-19v-18.996094c0-4.078125.972657-8.097656 2.835938-11.722656l51.523437-100.191406c2.59375-5.042969 3.945313-10.628907 3.945313-16.296876v-37.40625h36.996093v37.410157c0 5.667969 1.351563 11.253906 3.941407 16.292969l51.527343 100.195312c1.863282 3.625 2.835938 7.640625 2.835938 11.71875v18.996094zm0 0" fill="#122436"/><path d="m266.402344 325.648438h-61.789063c-6.019531 0-10.902343-4.878907-10.902343-10.902344v-28.503906c0-23.082032 18.714843-41.796876 41.796874-41.796876 23.082032 0 41.796876 18.710938 41.796876 41.796876v28.503906c0 6.023437-4.878907 10.902344-10.902344 10.902344zm0 0" fill="#fff"/><path d="m231.652344 287.484375c0 5.976563-4.84375 10.820313-10.824219 10.820313-5.976563 0-10.820313-4.84375-10.820313-10.820313s4.84375-10.824219 10.820313-10.824219 10.824219 4.847656 10.824219 10.824219zm0 0" fill="#4ea3da"/><path d="m261.007812 287.484375c0 5.976563-4.84375 10.820313-10.820312 10.820313s-10.824219-4.84375-10.824219-10.820313 4.84375-10.824219 10.824219-10.824219c5.976562 0 10.820312 4.847656 10.820312 10.824219zm0 0" fill="#4ea3da"/><path d="m240.207031 310.199219h-9.398437c-2.585938 0-3.878906-3.125-2.050782-4.953125l4.699219-4.699219c1.132813-1.136719 2.972657-1.136719 4.105469 0l4.699219 4.699219c1.828125 1.828125.53125 4.953125-2.054688 4.953125zm0 0" fill="#4ea3da"/><path d="m235.507812 239.445312c-25.847656.003907-46.792968 20.949219-46.796874 46.796876v28.503906c0 4.375 1.789062 8.382812 4.65625 11.242187 2.863281 2.871094 6.867187 4.660157 11.246093 4.65625h4.09375v16.800781h10v-16.800781h11.800781v16.800781h10v-16.800781h11.796876v16.800781h10v-16.800781h4.09375c4.375.003907 8.382812-1.785156 11.246093-4.65625 2.871094-2.859375 4.660157-6.867187 4.65625-11.242187v-28.503906c0-25.847657-20.945312-46.792969-46.792969-46.796876zm36.796876 75.300782c-.003907 1.644531-.652344 3.089844-1.730469 4.175781-1.082031 1.074219-2.523438 1.722656-4.171875 1.726563h-61.789063c-1.648437-.003907-3.089843-.652344-4.171875-1.726563-1.078125-1.085937-1.726562-2.527344-1.730468-4.175781v-28.503906c.003906-10.175782 4.109374-19.34375 10.777343-26.019532 6.675781-6.664062 15.84375-10.773437 26.019531-10.777344 10.175782.003907 19.34375 4.113282 26.019532 10.777344 6.664062 6.675782 10.773437 15.84375 10.777344 26.019532zm0 0" fill="#122436"/></svg>