<svg height="512" viewBox="0 0 128 128" width="512" xmlns="http://www.w3.org/2000/svg"><g><g><path d="m49.29 62.113v-34.607h-23.812v34.607a30.884 30.884 0 1 0 23.812 0z" fill="#6aa8fb"/><path d="m62.26 90.93a24.881 24.881 0 0 1 -49.76-.29 76.073 76.073 0 0 1 24.08 3.11c7.77 2.18 17.2.61 25.68-2.82z" fill="#eaeaf0"/><rect fill="#5283c3" height="6" rx="3" width="32.898" x="20.935" y="24.415"/><g fill="#eaeaf0"><circle cx="28.728" cy="77.726" r="3"/><circle cx="40.607" cy="66.715" r="3"/><circle cx="36.579" cy="45.633" r="3"/></g><g fill="#c7e554"><g><circle cx="101.25" cy="12.5" r="6"/><circle cx="115.5" cy="39.763" r="6"/><circle cx="67.518" cy="30.415" r="6"/><circle cx="68.268" cy="57.25" r="6"/><circle cx="99.25" cy="71.751" r="6"/></g><circle cx="87.875" cy="45.763" r="8.846"/></g></g><g fill="#20334d"><path d="m25.48 46.313a1.75 1.75 0 0 0 -1.75 1.75v2.5a1.75 1.75 0 0 0 3.5 0v-2.5a1.749 1.749 0 0 0 -1.75-1.75z"/><path d="m51.04 60.967v-28.823a4.742 4.742 0 0 0 -.207-9.479h-26.9a4.742 4.742 0 0 0 -.206 9.479v10.012a1.75 1.75 0 0 0 3.5 0v-9.991h20.313v29.945a1.752 1.752 0 0 0 1.075 1.615 29.135 29.135 0 1 1 -22.46 0 1.751 1.751 0 0 0 1.075-1.615v-5.756a1.75 1.75 0 0 0 -3.5 0v4.613a32.635 32.635 0 1 0 27.31 0zm-28.354-33.552a1.251 1.251 0 0 1 1.25-1.25h26.9a1.25 1.25 0 0 1 0 2.5h-26.9a1.251 1.251 0 0 1 -1.25-1.25z"/><path d="m47.822 96.346a1.75 1.75 0 0 0 -.308-3.487 29.223 29.223 0 0 1 -10.461-.794 77.048 77.048 0 0 0 -24.645-3.172 1.749 1.749 0 0 0 -1.658 1.749 26.631 26.631 0 0 0 53.26.309 1.75 1.75 0 0 0 -2.41-1.643 56.32 56.32 0 0 1 -6.14 2.084 1.75 1.75 0 1 0 .926 3.375c1.306-.358 2.624-.772 3.939-1.236a23.132 23.132 0 0 1 -46.017-1.205 75.5 75.5 0 0 1 21.8 3.109 32.686 32.686 0 0 0 11.714.911z"/><path d="m23.979 77.726a4.75 4.75 0 1 0 4.75-4.75 4.755 4.755 0 0 0 -4.75 4.75zm6 0a1.25 1.25 0 1 1 -1.25-1.25 1.251 1.251 0 0 1 1.25 1.25z"/><path d="m40.606 61.965a4.75 4.75 0 1 0 4.75 4.75 4.756 4.756 0 0 0 -4.75-4.75zm0 6a1.25 1.25 0 1 1 1.25-1.25 1.252 1.252 0 0 1 -1.25 1.25z"/><path d="m36.578 40.883a4.75 4.75 0 1 0 4.75 4.75 4.756 4.756 0 0 0 -4.75-4.75zm0 6a1.25 1.25 0 1 1 1.25-1.25 1.251 1.251 0 0 1 -1.25 1.25z"/><path d="m115.5 32.013a7.755 7.755 0 0 0 -7.744 7.635l-10.056 2.185a10.52 10.52 0 0 0 -4.31-5.1l6.669-16.586a7.749 7.749 0 1 0 -3.248-1.306l-6.67 16.59c-.3-.067-.6-.138-.913-.178a1.75 1.75 0 0 0 -.44 3.473 6.745 6.745 0 0 1 1.737.459 7.055 7.055 0 0 1 4.286 5.061 7.118 7.118 0 0 1 -4.094 8.022 7.026 7.026 0 0 1 -2.845.591 7.1 7.1 0 0 1 -7.09-7.1 7.018 7.018 0 0 1 1.424-4.259 7.063 7.063 0 0 1 1.569-1.523 1.75 1.75 0 0 0 -2.023-2.857 10.512 10.512 0 0 0 -1.166.969l-5.992-4.529a7.759 7.759 0 1 0 -2.108 2.795l5.987 4.515a10.509 10.509 0 0 0 -.486 8.653l-4.1 2.406a7.675 7.675 0 1 0 1.78 3.013l4.088-2.4a10.487 10.487 0 0 0 10.7 3.488l4.165 9.52a7.735 7.735 0 1 0 4.63-1.55 7.82 7.82 0 0 0 -1.428.137l-4.158-9.505a10.609 10.609 0 0 0 4.806-8.872c0-.171-.019-.338-.027-.507l10.057-2.185a7.746 7.746 0 1 0 7-11.055zm-14.25-23.763a4.25 4.25 0 1 1 -4.25 4.25 4.255 4.255 0 0 1 4.25-4.25zm-32.981 53.25a4.25 4.25 0 1 1 4.25-4.25 4.255 4.255 0 0 1 -4.25 4.25zm-.751-26.835a4.25 4.25 0 1 1 4.25-4.25 4.255 4.255 0 0 1 -4.25 4.25zm35.982 37.086a4.25 4.25 0 1 1 -4.25-4.25 4.255 4.255 0 0 1 4.25 4.25zm12-27.738a4.254 4.254 0 0 1 -4.15-3.352c0-.014-.01-.026-.014-.04a4.312 4.312 0 0 1 -.086-.855 4.25 4.25 0 1 1 4.25 4.25z"/></g></g></svg>